<?xml version="1.0" standalone="no"?><!DOCTYPE svg PUBLIC "-//W3C//DTD SVG 1.1//EN" "http://www.w3.org/Graphics/SVG/1.1/DTD/svg11.dtd"><svg class="icon" width="200px" height="200.00px" viewBox="0 0 1024 1024" version="1.1" xmlns="http://www.w3.org/2000/svg"><path d="M225.91269 64.159128C177.656994 74.8332 141.409627 108.856801 126.288026 157.557206 122.507626 170.232732 122.28525 187.133323 122.28525 510.023974 122.28525 832.247495 122.507626 849.815237 126.288026 863.602579 131.847438 882.726957 143.411015 904.519852 155.864098 918.751947 168.984311 933.873547 196.114241 951.441289 215.683372 957.667831L231.249726 962.560113 791.638459 962.560113 809.87333 956.333572C854.348627 940.989595 885.926087 907.18837 897.267287 862.26832 901.492441 845.590084 901.714817 836.472648 901.714817 509.134468 901.714817 176.904005 901.714817 172.901228 897.044911 156.445368 885.70371 115.083343 853.236744 81.28214 810.54046 66.827646L796.085988 61.935364 518.115387 61.490655C287.510975 61.26819 237.698644 61.712987 225.91269 64.159128ZM810.985213 110.413437C830.554343 119.975603 844.786438 134.20772 854.348627 153.77685L860.575168 166.45231 860.575168 853.818014 852.124862 870.718627C841.895544 891.622016 823.438296 909.634511 804.536295 917.417688L791.638459 922.532347 231.249726 922.532347 216.350501 915.416299C188.553441 902.296087 168.539558 875.388533 163.424899 844.478202 160.311628 825.353824 160.534004 192.470358 163.647253 175.124993 166.76059 157.557206 174.766099 141.990941 187.441559 129.093061 199.894642 116.417602 208.122571 110.85819 223.911302 105.298778 235.252502 101.073624 245.259444 101.073624 515.002116 101.518377L794.0846 101.96313 810.985213 110.413437Z" fill="#000000" /><path d="M502.10428 222.04643C492.097338 226.271583 490.318326 231.386242 490.318326 255.847655L490.318326 277.640551 478.75466 280.531445C461.631849 284.534222 440.283551 296.097799 431.166182 306.10474 410.48517 328.787141 405.815263 359.919849 418.935476 386.38265 432.055688 413.290204 453.403831 426.85517 506.996563 442.199147 567.705342 459.544557 584.383489 474.666113 573.709507 502.463129 566.371083 521.58764 548.581054 530.260234 512.555975 531.594492 481.423267 532.928751 457.406607 528.925975 428.942462 517.807151 407.816652 509.356844 398.47684 508.912091 391.805545 516.250515 382.243356 526.924586 386.46851 542.491029 400.922981 549.829364 417.378841 558.279759 453.626207 568.286612 478.532373 571.177506L490.09595 572.734141 490.763079 606.980075C491.430209 638.55758 491.874962 641.448474 496.322491 645.895959 502.993786 652.789675 517.448257 652.789675 524.119552 646.11838 528.789458 641.448474 529.234211 638.779956 530.346093 606.535367L531.457975 571.844636 548.136212 566.952353C571.26341 560.058749 585.495372 552.275505 596.614285 540.267264 610.846379 524.923198 615.516285 512.692491 615.738662 490.01009 615.960972 472.442437 615.293865 469.996207 608.400238 457.098371 594.835273 432.192205 578.157037 422.40764 519.227269 404.395145 500.325268 398.613357 479.866543 391.274933 473.862467 388.161662 459.630372 380.378485 452.069572 369.037284 452.069572 355.472319 452.069572 338.34933 461.854137 327.452882 483.202323 321.003964 510.554586 312.553658 547.913835 316.334058 586.829719 331.233283 608.177862 339.461212 616.183415 339.238836 622.854709 330.566153 627.746992 324.117235 626.635154 309.88514 621.075609 303.880975 615.293865 297.87681 584.383489 287.425116 555.697012 281.865704 544.800498 279.864315 534.571291 277.862927 533.236987 277.418174 531.23551 276.973421 530.346093 270.524503 530.346093 255.402902 530.346093 230.94149 528.567081 226.271583 518.115387 221.824054 509.220261 218.266008 510.999339 218.043654 502.10428 222.04643Z" fill="#000000" /><path d="M261.93768 779.099516C255.044009 781.99041 249.484597 793.553988 251.263609 801.559541 252.153115 805.117565 255.266386 810.009847 258.379656 812.455988 263.939068 816.903518 267.052339 816.903518 509.665169 816.903518 778.29587 816.903518 764.730905 817.570648 770.290317 804.005682 773.625964 796.222505 771.624575 787.549823 765.620455 781.99041 761.395257 778.21001 749.83168 777.987634 513.890233 777.542925 373.125921 777.320504 264.828574 777.987634 261.93768 779.099516Z" fill="#000000" /></svg>