<?xml version="1.0" standalone="no"?><!DOCTYPE svg PUBLIC "-//W3C//DTD SVG 1.1//EN" "http://www.w3.org/Graphics/SVG/1.1/DTD/svg11.dtd"><svg class="icon" width="200px" height="200.00px" viewBox="0 0 1024 1024" version="1.1" xmlns="http://www.w3.org/2000/svg"><path d="M356.531176 67.549612C294.102779 79.969055 243.762639 133.621046 237.138936 195.221497 234.98625 215.754958 235.317418 215.092588 226.706605 217.079699 196.568758 224.696957 162.125504 254.006841 146.394211 285.800614 132.484435 314.116942 129.006991 345.910715 136.789842 374.227043 138.942545 381.844301 140.432878 388.136819 140.101693 388.468004 139.770475 388.799189 133.809209 391.779855 127.01988 395.422892 112.116549 403.205742 87.940035 426.388702 79.163629 441.292032 39.918181 508.025803 68.400112 593.140415 139.439323 621.953555 144.4071 624.106225 149.043692 626.093336 149.374877 626.59008 149.706062 626.921298 148.546914 631.392298 146.725363 636.360075 138.776953 657.059145 136.458657 686.203437 141.095248 707.73047 149.706062 748.797427 182.49339 786.552532 222.070013 800.959085L234.655048 805.595677 234.655048 815.034453C234.655048 833.746413 241.609936 860.903593 251.54549 880.112331 270.091857 916.708288 311.489998 948.005283 352.556955 956.450504 362.823694 958.603207 376.733469 959.099985 423.099421 959.099985 479.732045 959.099985 480.891193 959.099985 484.037518 955.622541 487.18371 952.145097 487.18371 942.209543 487.680488 513.655984L488.011673 75.16687 483.7062 70.033501 479.40086 64.900131 423.761758 65.065724C383.853949 65.231316 364.645212 65.893687 356.531176 67.549612ZM458.205011 162.434169L458.205011 231.817421 437.340348 243.077732C425.914461 249.204657 415.482129 255.828359 414.157389 257.81547 412.004686 260.961729 382.694801 330.510606 380.873283 336.803124 380.210913 338.955827 378.223802 339.78379 373.918395 339.78379 356.696769 339.78379 345.270882 358.330157 353.053732 373.564673 355.206436 377.538895 355.372028 379.360413 353.716103 383.169042 352.722547 385.65293 351.397807 387.805634 350.901029 387.805634 350.404251 387.805634 345.105289 385.818523 339.143957 383.500227 326.062144 378.201265 302.216815 376.379747 287.479076 379.360413 255.188543 386.149708 227.368975 412.975704 218.923754 445.26632 213.624792 465.799732 216.771051 491.963358 226.872197 511.006436 232.171159 520.942056 244.756194 535.183017 253.698226 541.475535L258.66597 544.787386 253.367008 555.716495C248.233655 566.148827 247.736861 566.645605 241.941137 566.645605 229.356086 566.645605 218.592553 579.065097 220.248528 591.650148 223.063568 613.342708 250.220749 620.794373 262.474599 603.40722 268.104746 595.789896 268.601524 587.67586 264.46171 578.899454L260.653097 571.282196 265.455298 561.346642C269.263894 553.232607 270.754211 551.576681 273.569301 552.404644 275.390819 552.901422 281.683337 554.391755 287.644669 555.882088 301.720037 559.525124 321.094367 558.365976 336.163291 552.901422L347.257992 548.9272 351.894584 556.544458 356.696769 564.327375 353.716103 569.957456C349.907474 576.91241 349.741881 586.682305 353.219325 593.306074 356.034398 598.770562 366.632323 604.566302 373.918395 604.731895 378.72058 604.731895 378.389395 604.235183 399.750836 651.925776 407.533686 669.147336 414.985352 684.547577 416.1445 685.872252 417.46924 687.197025 427.239202 693.158325 438.002718 699.119657L457.377048 709.883174 457.873826 821.32697 458.205011 932.605174 420.284314 932.605174C399.419651 932.605174 376.733469 931.777211 369.778581 930.949249 322.253515 924.325546 284.332818 893.194144 269.429487 848.484151 264.46171 833.912005 263.964932 830.268969 263.633747 810.397861 263.136969 784.896606 261.48106 781.419162 248.896009 779.597644 229.852864 776.616978 209.650571 765.191091 193.753717 748.135056 164.112615 716.506876 158.482468 675.605513 178.353576 636.194482 185.308463 622.450299 186.302019 616.985678 182.990168 610.85882 180.175094 605.394265 176.69765 603.40722 166.762096 601.254451 139.27373 595.458744 112.944512 574.925233 100.028292 549.258336 89.927146 528.8905 87.112072 501.567726 92.907812 481.365433 97.047626 467.621217 106.32081 450.399657 114.931623 440.795255 125.03277 429.53496 143.744729 417.446703 158.151283 412.810111 167.755651 409.829445 170.570725 408.173519 172.557803 404.36489 176.03528 397.575595 175.704111 392.276633 170.90191 382.837857 161.794319 364.95386 159.144838 337.631087 164.278208 317.759979 174.379354 279.176911 210.975311 245.892789 248.564823 241.256247 262.474599 239.434695 263.468154 237.613177 264.627286 211.615128 265.78645 186.445074 270.091857 171.210558 281.352151 151.836228 293.771594 130.64038 319.438441 109.113346 342.290215 100.668125 359.015065 94.5412 370.440952 93.382052 414.819759 93.21646L458.205011 93.050867 458.205011 162.434169ZM458.205011 352.203232L458.205011 457.354511 454.230757 457.354511C451.250124 457.354511 449.428605 455.698586 447.110243 451.061994 444.626355 446.591044 441.811347 444.107106 436.1812 441.78881 428.895127 438.808144 428.39835 438.642551 420.946734 441.457625 415.316537 443.610395 412.501463 446.094283 409.68639 450.896401 406.540131 456.360956 405.380983 457.354511 401.241169 457.023326 396.935762 456.526549 396.273392 455.698586 393.458318 444.438357 389.318504 428.375812 383.191579 417.281111 371.6001 405.192853L361.995731 395.257299 364.976397 389.958337C367.460285 385.156153 368.785026 384.493783 374.415173 384.493783 382.529209 384.493783 390.808837 379.360413 394.286281 372.239933 397.598132 365.119452 397.598132 359.654898 394.451874 351.872047L391.967985 345.745122 407.864871 306.830869C416.641277 285.303836 424.920906 266.426283 426.411239 264.770358 429.06072 261.955284 454.396382 247.217546 457.045863 247.051953 457.708234 247.051953 458.205011 294.411427 458.205011 352.203232ZM380.707691 357.005417C384.185135 362.138786 379.548543 371.246377 373.58721 371.246377 369.447396 371.246377 365.473175 366.775378 365.473175 362.138786 365.473175 354.687121 376.733469 350.878492 380.707691 357.005417ZM337.819216 397.410003C357.855917 406.683186 374.580766 426.388702 380.376506 447.750143 381.535654 452.552327 382.198024 461.825511 381.701246 471.761131 381.204468 486.33321 380.542098 489.313876 375.077543 500.574171 360.836583 530.712051 328.049255 548.596015 296.255482 543.628238 251.876675 536.838943 222.566791 495.275209 231.508789 452.055549 235.648603 432.184441 250.220749 411.485371 267.442376 401.549817 281.020966 393.601374 291.784483 390.951893 309.999665 391.614263 324.240626 392.111041 328.049255 392.939003 337.819216 397.410003ZM434.02853 456.692108C437.671533 460.169585 437.340348 464.971769 433.366127 468.945991 429.391872 472.920213 428.563909 472.920213 423.761758 469.608361 419.456351 466.627695 419.125166 461.328766 422.933795 457.023326 426.245646 453.38029 430.551053 453.214697 434.02853 456.692108ZM409.189612 473.582517C413.826204 487.989136 438.499496 489.148284 446.28228 475.404101 448.269457 471.926591 450.422194 470.601917 453.734012 470.601917L458.205011 470.601917 458.205011 582.376898C458.205011 643.811806 457.708234 694.15188 457.045863 694.15188 456.217901 693.986287 449.09742 690.343251 440.983385 685.872252L426.080054 677.758216 408.361649 637.850408 390.808837 597.942599 393.955096 591.815675C401.572354 577.077936 392.133578 560.021902 376.236691 560.021902 368.785026 560.021902 368.785026 560.021902 364.314027 551.079903L359.843027 541.972312 370.772137 530.546425C383.853949 516.63665 391.140022 502.561315 394.783059 484.180507L397.43254 470.601917 402.897094 470.601917C406.705723 470.601917 408.527242 471.42983 409.189612 473.582517ZM380.04532 575.256385C382.860394 578.071492 382.529209 584.198417 379.38295 587.179083 375.408729 591.153304 369.281804 590.490868 366.135545 585.68875 363.651656 581.880121 363.651656 581.217783 366.135545 577.409072 369.116211 572.938122 376.567877 571.778974 380.04532 575.256385ZM249.889564 582.708083C256.182081 588.503823 251.876675 598.108192 242.934676 598.108192 234.655048 598.108192 231.508789 587.179083 238.298084 582.542491 243.100269 579.23064 246.080935 579.23064 249.889564 582.708083Z" fill="#000000" /><path d="M541.663697 68.70876L537.358258 72.517389 537.523784 512.828021C537.855102 921.841658 538.020628 953.469838 540.670109 956.284911 543.153997 959.099985 546.797034 959.265577 606.410407 958.7688L669.335532 958.106429 683.4109 953.469838C739.381188 934.757878 777.136292 891.703811 786.906254 835.071153 788.230994 827.453895 789.390142 817.683934 789.390142 813.378527L789.390142 805.595677 799.822474 801.787048C832.278617 790.195568 858.27665 766.515831 873.842351 734.722059 889.076867 703.093879 889.408052 664.345218 874.670313 629.074068 873.676758 626.755706 874.339128 625.762117 876.988609 625.09978 884.937053 623.112669 903.317827 613.011523 912.756604 605.72545 933.786859 589.331786 951.174079 563.664938 958.128966 538.826054 973.86026 481.862211 946.703079 421.08974 892.554311 392.773411L882.784349 387.640041 885.599423 379.029228C901.661902 331.504162 883.446719 274.374726 841.717393 241.090588 828.966765 230.989474 813.401064 222.54427 798.994511 218.073254L789.555735 215.092588 788.562179 205.819404C785.912698 180.483775 780.282551 161.440597 770.181405 143.059839 755.609259 116.399419 733.75104 95.203571 707.587415 81.956165 677.615161 66.887242 665.195718 64.900131 598.627507 64.900131 546.300223 64.900131 546.134664 64.900131 541.663697 68.70876ZM663.208607 95.700348C704.937934 104.145569 740.043558 135.442564 753.953333 176.178335 758.424333 189.260148 761.901776 214.595777 760.411443 222.875439 759.086703 229.167956 761.736184 236.288436 765.875998 238.606732 767.531924 239.600255 773.824441 241.090588 779.620181 241.9186 803.46551 245.727213 832.609802 266.095065 847.016355 288.946872 865.728315 318.753534 867.881018 353.36238 852.812095 383.500227 845.526022 397.90678 849.831429 406.683186 867.549833 413.141296 889.242459 421.08974 905.139346 433.343589 917.889973 452.552327 950.677301 502.064504 932.793304 566.480045 878.478943 593.802818 872.352018 596.949044 863.078834 600.426488 857.779872 601.420043 846.188392 603.903882 839.067912 610.196482 839.067912 618.144959 839.067912 621.125592 841.882986 629.074068 845.691615 636.360075 865.728315 675.274328 859.766983 716.672469 829.794728 748.631834 813.401064 766.019053 799.160104 773.967497 773.162071 780.260014 763.226517 782.743903 760.577036 787.546087 760.908221 802.283825 762.729739 868.520851 718.682117 921.510472 654.266609 930.949249 647.974091 931.777211 625.453502 932.605174 604.42318 932.605174L565.840179 932.605174 565.840179 729.257504 582.896246 728.595134C597.468359 727.932763 602.104951 726.939208 616.51157 721.474653 625.784654 717.997209 634.892279 714.022988 636.879389 712.532655 639.860056 710.214359 641.8471 702.928286 649.298832 666.994666L658.240764 624.271817 691.028158 575.256385C709.243341 548.430422 724.477857 525.744175 724.974634 524.916212 725.471412 524.088315 730.604782 525.909833 736.400521 528.8905 745.508112 533.692684 748.323186 534.355054 759.417888 534.189462 768.525479 534.189462 774.155626 533.195906 779.620181 530.712051 803.299918 520.114094 815.553768 494.116028 808.433287 469.608361 797.669771 432.349968 753.456556 420.261777 724.974634 446.756587L715.701451 455.367401 706.59386 449.074883C701.626083 445.597439 694.505602 440.298444 691.028158 437.152218L684.570048 431.522005 674.96568 386.977671C669.666717 362.304379 660.393534 319.084719 654.432152 290.933983 648.305276 262.617654 642.675063 237.77877 641.515981 235.626066 639.032093 230.492697 625.784654 223.041031 611.543727 218.570015 602.270543 215.754958 597.633951 215.258181 585.876879 216.086143 578.094029 216.582921 570.311178 217.576477 568.820845 218.073254 566.005838 219.232402 565.840179 215.589366 565.840179 156.141635L565.840179 93.050867 608.066283 93.050867C640.191241 93.050867 653.438646 93.713238 663.208607 95.700348ZM617.505059 235.294881C627.275021 239.931473 628.765354 241.256247 630.421279 246.720801 631.249292 250.032619 640.688018 293.086686 651.12035 342.267678 661.552715 391.44867 671.322643 434.171552 672.978569 437.152218 675.959235 442.947958 685.232419 451.22762 699.804564 460.997548L708.912155 467.124473 709.077748 482.524581C709.243341 494.778431 709.905711 499.415023 712.886377 505.210763L716.529413 512.662362 680.099049 566.811263C660.062349 596.617859 643.668685 622.119114 643.668685 623.609447 643.668685 628.080446 628.599761 701.603545 627.44058 702.762693 626.778243 703.425064 618.995459 706.571322 610.053394 709.883174 596.309211 714.850951 591.672685 715.678913 579.915597 715.678913L565.840179 715.678913 565.840179 232.148622 569.648808 231.486252C571.635919 230.989474 574.782177 230.327104 576.603646 229.830326 578.425214 229.333549 585.876879 229.167956 593.162952 229.499158 604.092062 229.830326 608.397468 230.823882 617.505059 235.294881ZM771.340553 448.24697C792.370808 455.698586 801.809585 479.709508 791.874031 499.911801 780.779329 521.935612 753.953333 527.068981 734.744596 510.84091 718.847709 497.427978 719.344487 467.455658 735.738151 454.870623 747.164038 446.094283 758.92111 443.941514 771.340553 448.24697Z" fill="#000000" /></svg>