<?xml version="1.0" standalone="no"?><!DOCTYPE svg PUBLIC "-//W3C//DTD SVG 1.1//EN" "http://www.w3.org/Graphics/SVG/1.1/DTD/svg11.dtd"><svg class="icon" width="200px" height="200.00px" viewBox="0 0 1024 1024" version="1.1" xmlns="http://www.w3.org/2000/svg"><path d="M491.263168 144.346987C435.931063 151.079368 387.54177 180.954539 358.087418 227.029562 353.879653 233.551597 349.4615 241.335961 348.409559 244.491785 346.305677 249.751491 346.095289 249.751491 331.999277 248.068385 255.628349 238.811303 184.937904 262.164396 131.709681 314.761454 110.670858 335.379501 97.837134 352.631336 85.42427 377.457147 67.54127 413.012758 61.440012 439.732105 61.440012 482.020098 61.440012 524.097807 67.54127 551.027438 85.42427 586.372661 98.257994 612.040025 109.408528 627.187977 129.39541 647.385248 163.478283 681.257753 192.091124 697.247258 247.423208 713.447152 250.368643 714.288705 281.085325 715.761423 315.799383 716.392587L378.915853 717.654917 379.336629 792.342739C379.757406 843.677467 380.598959 868.503279 382.282064 871.659102 383.754782 874.183761 387.54177 877.339584 391.11837 878.601914 395.115746 879.864243 437.614169 880.705796 511.881215 880.705796 635.589495 880.705796 637.272601 880.495408 639.797259 869.55522 640.428424 867.030561 641.059547 831.685338 641.269977 791.290798L641.901142 717.654917 739.731669 716.602976C844.925785 715.340646 841.98035 715.551034 871.224314 703.348517 906.990313 688.410953 938.338159 656.221469 952.854947 619.824389 961.060088 598.785566 963.374359 583.006449 962.322418 554.183177 961.060088 525.360073 956.431547 508.949791 942.335536 484.544841 930.553795 464.137098 904.044878 439.311287 883.006055 428.791875 873.328196 423.952946 864.071114 419.95557 862.598396 419.95557 860.284126 419.95557 859.652961 415.958193 859.652961 402.493346 859.652961 377.457147 855.02442 358.942983 842.821902 334.117171 824.938903 298.140784 792.959892 269.107208 756.562728 255.852749 736.575846 248.489161 713.012364 245.122949 693.025482 246.595667L677.667141 247.647608 668.410059 231.237326C657.469871 211.881609 627.384354 180.954539 608.659801 169.803963 574.576908 149.606693 529.343438 139.928834 491.263168 144.346987ZM538.810908 206.411515C560.06012 210.829668 582.150884 222.821797 597.719676 237.96975 613.077954 253.328091 620.441542 265.109831 628.225907 286.990207 636.641436 311.184854 637.693377 312.657572 646.740071 312.657572 650.947836 312.657572 662.098412 311.184854 671.355494 309.501748 714.485081 301.717384 743.518657 308.449807 768.344469 332.013289 783.70281 346.530077 791.487174 359.574147 796.74688 379.140253 801.585809 397.444029 801.165033 415.537417 795.48455 436.786628 789.172904 460.35011 792.328727 464.978651 816.523374 469.186332 837.562197 472.973404 849.343938 477.181169 862.17762 485.38631 902.782548 511.47445 915.61623 565.965002 891.84236 609.936142 881.112561 629.502248 855.865973 647.806024 832.092103 653.276118 826.41162 654.748836 777.601551 655.590389 707.54227 655.590389L592.249519 655.590389 587.200202 660.850094 581.940496 665.899412 581.940496 819.693209 438.876499 819.693209 438.876499 743.111893C438.876499 670.948729 438.66611 666.320188 434.879122 661.691647L430.881746 656.642393 343.781018 655.590389 256.890679 654.328059 241.742726 648.857965C178.836645 625.925648 138.231716 580.271402 124.135705 517.365321 119.296775 495.274556 120.979881 452.565682 127.501916 431.526922 151.275787 356.207936 220.072738 306.345925 300.020266 306.345925 320.007148 306.345925 339.783642 309.712136 359.980912 316.865336 379.547017 323.59776 385.858664 318.969219 392.591088 293.722631 400.796229 263.216337 426.674065 231.447714 455.497169 216.930927 481.164533 204.097244 510.198025 200.310256 538.810908 206.411515Z" fill="#000000" /><path d="M415.313017 532.93405C362.505571 585.531192 322.531807 627.187977 321.690254 630.133413 320.638313 634.130789 321.690254 636.444975 326.108407 640.232048 329.26423 642.967095 333.682383 645.070977 335.996654 645.070977 338.731701 645.070977 370.289935 615.195848 425.832344 559.863743L511.460438 474.866898 596.667672 559.863743C651.999777 615.195848 683.558011 645.070977 686.293058 645.070977 693.23587 645.070977 699.757905 639.180107 699.757905 632.86846 699.757905 628.02953 683.558011 610.988084 606.555919 533.985991 555.431579 482.861651 512.091603 440.994393 510.408497 440.994393 508.725391 440.994393 466.01658 482.440832 415.313017 532.93405Z" fill="#000000" /></svg>