<?xml version="1.0" standalone="no"?><!DOCTYPE svg PUBLIC "-//W3C//DTD SVG 1.1//EN" "http://www.w3.org/Graphics/SVG/1.1/DTD/svg11.dtd"><svg class="icon" width="200px" height="200.00px" viewBox="0 0 1024 1024" version="1.1" xmlns="http://www.w3.org/2000/svg"><path d="M160.114792 61.613501C158.28021 61.947062 155.111387 63.781643 153.110025 65.783005 149.274081 69.118609 149.274081 69.785729 149.274081 108.979067L149.274081 148.672745 130.761483 148.672745C112.582446 148.672745 112.248886 148.672745 107.412261 153.50937 102.242076 158.679555 101.408175 164.183284 104.410218 170.854507 107.245481 177.192153 112.749226 178.693174 131.762164 178.693174L149.274081 178.693174 149.274081 217.052611 130.761483 217.052611C112.582446 217.052611 112.248886 217.052611 107.412261 221.889236 100.907835 228.560442 100.907835 235.565209 107.412261 242.236416 112.248886 247.07304 112.582446 247.07304 130.761483 247.07304L149.274081 247.07304 149.274081 298.44133 129.927583 299.10845C110.914644 299.608791 110.581084 299.608791 106.41158 304.445416 102.909197 308.61492 102.408856 310.616281 103.075977 316.120027 104.576998 327.127517 108.079381 328.795319 130.261143 328.795319L149.274081 328.795319 149.274081 385.167013 130.094363 385.834134C112.916006 386.334474 110.581084 386.668035 107.245481 390.170418 101.741735 395.507383 101.908516 407.849115 107.412261 412.35218 110.747864 415.020662 114.083467 415.521003 130.261143 415.521003L149.274081 415.521003 149.274081 465.555051 133.596746 465.555051C115.250928 465.555051 108.412942 467.556379 105.077339 474.060839 101.574955 480.732045 102.075296 486.402571 106.57836 491.739536 110.581084 496.2426 111.081424 496.409331 129.927583 496.909721L149.274081 497.576908 149.274081 553.948536 132.262505 553.948536C118.086191 553.948536 114.083467 554.615657 109.747183 557.284139 103.576317 560.953303 101.574955 566.790608 103.576317 574.462496 106.07802 582.801537 113.416347 585.636767 133.096406 585.636767L149.274081 585.636767 149.274081 644.009823 130.761483 644.009823C112.582446 644.009823 112.248886 644.009823 107.412261 648.846481 100.907835 655.517654 100.907835 662.522421 107.412261 669.193594 112.248886 674.030252 112.582446 674.030252 130.761483 674.030252L149.274081 674.030252 149.274081 719.060895 130.761483 719.060895C112.582446 719.060895 112.248886 719.060895 107.412261 723.89752 104.076658 727.233123 102.575636 730.401946 102.575636 734.07111 102.575636 737.740273 104.076658 740.909096 107.412261 744.244699 112.248886 749.081324 112.582446 749.081324 130.761483 749.081324L149.274081 749.081324 149.274081 807.45438 130.761483 807.45438C112.582446 807.45438 112.248886 807.45438 107.412261 812.291005 100.907835 818.962212 100.907835 825.966978 107.412261 832.638185 112.248886 837.474809 112.582446 837.474809 130.761483 837.474809L149.274081 837.474809 149.274081 895.681085C149.274081 951.886 149.440861 953.887362 152.776498 958.223646L156.112068 962.55993 914.628239 962.55993 917.963842 958.223646 921.466226 953.720581 921.466226 70.11929 917.296722 66.116566C915.12858 63.781643 912.293317 61.947062 911.125856 61.947062 898.283783 61.446721 162.616494 61.279941 160.114792 61.613501ZM893.113598 512.253496L893.113598 935.875104 177.626709 935.875104 177.626709 837.474809 197.473548 837.474809C216.152926 837.474809 217.487167 837.308029 221.656688 833.305305 227.660757 827.80156 227.827537 817.46119 221.823451 811.623884 217.987507 807.621161 216.820046 807.45438 197.640328 807.45438L177.626709 807.45438 177.626709 749.081324 197.306751 749.081324C219.154935 749.081324 223.157692 747.413523 225.826175 738.073834 227.493977 731.902968 224.491934 723.56396 219.488562 720.895477 217.653947 719.894796 207.480374 719.060895 196.973207 719.060895L177.626709 719.060895 177.626709 674.030252 195.972526 674.030252C221.156331 674.030252 225.992955 671.528549 225.992955 658.019356 225.992955 654.016633 224.658714 650.847809 221.823451 648.179327 217.987507 644.17657 216.820046 644.009823 197.640328 644.009823L177.626709 644.009823 177.626709 585.636767 193.971164 585.469986C214.151564 585.303206 217.487167 584.802866 222.157011 580.299735 224.992274 577.631386 225.992955 574.962836 225.992955 569.959431 225.826175 556.950612 220.155683 553.948536 194.971862 553.948536L177.626709 553.948536 177.626709 497.576908 197.473548 496.909721C215.819365 496.409331 217.653947 496.07582 221.656688 492.406657 227.660757 486.736131 227.660757 476.062234 221.656688 470.391675 217.653947 466.722479 215.819365 466.388952 197.473548 465.888611L177.626709 465.22149 177.626709 415.521003 197.640328 415.521003C216.820046 415.521003 217.987507 415.354222 221.823451 411.351499 224.658714 408.683016 225.992955 405.514193 225.992955 401.511469 225.992955 388.002276 221.156331 385.500574 195.972526 385.500574L177.626709 385.500574 177.626709 328.795319 197.473548 328.795319C214.985465 328.795319 217.653947 328.461759 221.656688 325.292936 224.992274 322.624453 225.992955 320.456311 225.992955 315.452906 225.992955 301.276592 221.489891 298.77489 195.972526 298.77489L177.626709 298.77489 177.626709 247.07304 195.972526 247.07304C220.98955 247.07304 225.992955 244.404558 225.992955 231.562452 225.826175 220.054654 219.655309 217.052611 196.139306 217.052611L177.626709 217.052611 177.626709 178.693174 197.473548 178.693174C216.152926 178.693174 217.487167 178.526394 221.656688 174.52367 224.658714 171.688408 225.992955 168.853145 225.992955 164.683641 225.992955 151.174448 221.156331 148.672745 195.972526 148.672745L177.626709 148.672745 177.626709 88.631887 893.113598 88.631887 893.113598 512.253496Z" fill="#000000" /><path d="M302.211489 186.698622C299.709786 189.533885 299.376226 197.372552 299.376226 264.418177 299.376226 312.617643 300.043347 340.13637 301.044028 342.304512 302.878609 345.473335 307.548454 345.473335 565.390582 345.473335 801.71807 345.473335 828.069336 345.139775 830.404258 342.804852 832.73918 340.46993 833.07274 331.130241 833.07274 264.751771 833.07274 193.703389 832.90596 189.033544 830.070698 186.531842 827.235435 183.863343 806.554695 183.696579 565.890923 183.696579 315.220341 183.696579 304.713191 183.863343 302.211489 186.698622ZM819.730328 264.584924L819.730328 332.130922 312.718639 332.130922 312.718639 197.038992 819.730328 197.038992 819.730328 264.584924Z" fill="#000000" /><path d="M758.688789 463.887249C718.66155 479.731364 715.325947 534.768818 753.185043 553.781756 781.03733 567.624509 813.893022 553.781756 822.39881 524.428448 827.235435 507.917212 823.065931 489.904954 811.5581 476.729322 799.383148 463.053348 775.700365 457.216043 758.688789 463.887249ZM788.875998 477.062882C801.88485 482.900188 811.39132 497.410062 811.39132 511.586442 811.39132 518.757922 803.719432 533.267796 797.381786 537.937574 779.703089 550.94656 756.187086 546.610209 745.513156 528.097661 739.842631 518.424362 738.84195 510.752441 742.010773 500.245258 747.848078 479.898145 770.53018 468.723874 788.875998 477.062882Z" fill="#000000" /></svg>