<?xml version="1.0" standalone="no"?><!DOCTYPE svg PUBLIC "-//W3C//DTD SVG 1.1//EN" "http://www.w3.org/Graphics/SVG/1.1/DTD/svg11.dtd"><svg class="icon" width="200px" height="200.00px" viewBox="0 0 1024 1024" version="1.1" xmlns="http://www.w3.org/2000/svg"><path d="M716.022455 66.013374C705.52068 78.717135 656.568856 129.024026 646.575231 137.662584 640.138659 143.082855 609.480284 165.102706 578.144308 186.783791 526.990498 222.184954 520.384509 226.419524 513.270437 227.097092 502.260511 228.113359 491.928119 224.386922 461.608477 208.634276 432.47452 193.55913 409.777134 185.089956 398.428442 185.089956 389.789885 185.089956 390.636802 184.412422 362.688529 215.578982 338.805459 242.172204 299.677876 294.681064 284.772131 320.088585 280.706927 326.863924 276.641724 332.961729 275.625423 333.808646 272.915288 335.841248 182.972663 357.8611 177.383008 357.8611 175.01164 357.8611 170.946436 359.724318 168.236301 361.926303L163.493563 365.991506 163.493563 660.718683C163.493563 948.162506 163.493563 955.445996 166.711815 959.003049L169.930135 962.560102 853.223069 962.560102 856.780122 958.664282 860.506559 954.768462 860.506559 68.72351 856.610739 65.166457C852.714919 61.44002 852.037385 61.44002 786.316597 61.44002L719.918275 61.44002 716.022455 66.013374ZM777.67804 88.541376L833.235819 88.541376 833.405203 132.581079C833.574586 175.773865 833.405203 176.620783 830.017533 176.620783 828.154315 176.620783 816.128088 174.249414 803.424328 171.539278 787.502281 167.982242 776.831122 166.457774 769.208866 166.796541L758.19894 167.304725 750.746067 180.855403C730.250667 217.780967 713.989854 245.898623 709.585883 251.488278 700.777943 262.498204 687.566032 269.61231 658.093256 279.097784 643.018144 283.840522 626.249214 290.446477 620.659492 293.49538 607.955799 300.948252 584.411496 323.476254 566.964998 345.157339 559.512125 354.47343 552.736719 362.77322 552.059253 363.620138 549.5185 366.499657 515.811189 347.698091 492.94442 330.59036 458.898376 305.013456 450.598552 302.133937 430.103084 308.062358 406.220082 315.007081 389.112351 329.404676 356.590724 369.717943 330.505669 401.900803 300.35541 436.285648 295.95144 438.656983 292.05562 440.859002 220.237027 441.705868 201.096712 439.673318L191.441837 438.656983 191.780604 404.610939 192.28872 370.56486 238.699826 358.708017 285.280281 346.851174 290.361785 338.382C315.091773 297.052433 365.229281 231.331645 391.822486 205.58534L399.614126 198.132484 411.132202 202.028304C425.529798 206.771041 449.582251 217.95035 464.996147 226.92764 491.081202 242.002804 511.576602 245.390456 528.51495 237.090683 537.153473 233.025479 587.291015 198.640634 636.073506 163.408872 655.383172 149.519427 661.311593 143.929772 706.706364 96.333016 715.683688 87.016925 718.563207 84.81494 720.257042 86.508774 721.781493 88.033226 736.687239 88.541376 777.67804 88.541376ZM809.691516 187.630708C820.362675 190.171461 830.186917 193.55913 831.372601 194.914198 832.897052 197.116183 833.405203 272.999979 833.066436 566.033321L832.558285 934.611828 512.084753 935.119979 191.441837 935.458746 191.441837 454.40968 291.378086 454.40968 291.378086 844.49982 280.537544 843.483519C269.019468 842.467219 262.582896 844.838587 262.582896 850.597625 262.582896 857.372964 263.937963 857.542348 336.264707 857.542348 409.946518 857.542348 409.946518 857.542348 409.946518 849.581325 409.946518 844.49982 405.203781 842.297835 394.024471 842.297835L384.538997 842.297835 384.538997 405.288472 494.638255 405.288472 494.299488 600.418234C494.130071 707.807357 493.621954 806.219155 493.283153 818.922916L492.605653 842.297835 481.256927 842.297835C474.651005 842.297835 469.06135 843.144753 467.875632 844.330437 464.826763 847.379339 465.504297 853.815911 469.06135 855.848513 471.093952 856.864814 488.032299 857.542348 512.254068 857.542348 546.130831 857.542348 552.39802 857.203581 554.600005 854.832212 557.818325 851.78331 558.157058 847.209956 555.277572 844.330437 554.091854 843.144753 548.5022 842.297835 541.726861 842.297835L530.208784 842.297835 530.208784 473.041862 638.614208 473.041862 638.614208 842.297835 626.757365 842.297835C616.763706 842.297835 614.731138 842.805986 613.206687 845.685505 611.343468 849.073174 613.37607 855.848513 616.255589 855.848513 616.933123 855.848513 648.607867 856.017897 686.719114 856.017897 747.527781 856.18728 756.166339 855.848513 758.537707 853.646528 760.739692 851.444543 760.739692 850.089475 759.215241 846.532422 757.352023 842.467219 756.505106 842.297835 744.478879 842.297835L731.775118 842.297835 731.775118 245.898623 741.768743 227.774558C747.189015 217.780967 754.980654 203.213988 758.876474 195.422348L766.159964 181.36352 778.18619 182.210437C784.792146 182.549204 799.020358 185.089956 809.691516 187.630708ZM716.530606 554.345929L716.530606 842.297835 653.85872 842.297835 653.85872 653.604645C653.85872 549.772576 653.35057 463.725771 652.84242 462.20132 651.995502 459.829951 644.373246 459.491184 585.427797 459.491184 535.967823 459.491184 518.521325 459.999334 516.996873 461.523786 515.472422 463.048237 514.964272 507.934824 514.964272 652.927111 514.964272 841.112151 514.964272 842.297835 511.576602 842.297835 508.188933 842.297835 508.188933 841.112151 508.188933 618.203499 508.188933 446.10989 507.680782 393.601013 506.156331 392.076561 503.107429 389.027659 373.529071 389.197042 371.496469 392.076561 370.818935 393.262246 369.802635 495.231097 369.294484 618.71165L368.447567 843.144753 307.469516 843.144753 306.961366 646.829374 306.622599 450.683243 323.222179 431.712362C332.368887 421.379902 351.339836 399.190667 365.398664 382.421703 406.220082 333.469879 419.940143 322.629337 442.637528 320.935502 453.647454 320.088585 453.986221 320.257968 484.475246 342.616587 503.446196 356.506032 522.586477 367.854725 540.033026 375.646364 553.583636 381.74417 555.108155 381.066636 572.046502 360.910002 602.366144 325.170089 616.933123 311.111261 631.838869 303.658388 636.920373 301.117636 649.9629 296.713666 660.634059 293.664763 682.315144 287.566958 705.52068 276.895799 711.449102 270.628611 713.651087 268.257242 715.683688 266.394024 716.022455 266.394024 716.361222 266.394024 716.530606 395.972381 716.530606 554.345929Z" fill="#000000" /></svg>