<?xml version="1.0" standalone="no"?><!DOCTYPE svg PUBLIC "-//W3C//DTD SVG 1.1//EN" "http://www.w3.org/Graphics/SVG/1.1/DTD/svg11.dtd"><svg class="icon" width="200px" height="200.00px" viewBox="0 0 1024 1024" version="1.1" xmlns="http://www.w3.org/2000/svg"><path d="M217.317418 186.576192C202.840373 194.138817 200.895719 199.324617 200.895719 230.65549L200.895719 258.529163 169.348728 258.529163C147.093048 258.529163 134.560655 259.609538 126.133731 261.986363 95.451082 270.845437 70.602416 297.854811 63.904134 329.401759 60.879084 344.094858 60.446891 748.371246 63.688059 767.169597 68.441709 796.339807 86.592008 820.75628 113.169188 833.936854L127.430181 840.851254 896.657135 840.851254 911.13416 833.936854C936.847083 821.836655 955.213457 798.284481 960.399257 770.842958 961.695707 763.496408 962.560006 681.820063 962.560006 548.285721 962.560006 324.432034 962.560006 327.241009 952.188407 306.92996 946.138307 294.829761 929.716608 277.327687 918.696784 270.845437 903.35546 261.770288 888.446286 258.529163 861.869062 258.529163L837.668664 258.529163 836.804364 230.871565C836.156139 209.264066 835.291839 201.701441 832.266789 197.379899 823.407715 183.767218 806.337791 179.445718 794.021516 187.656567 781.489167 196.083492 778.896267 204.078266 778.896267 233.032315L778.896267 258.529163 692.898509 258.529163 692.250197 230.65549C691.385833 199.108542 689.225083 193.706667 674.31606 186.360096 663.728299 181.174274 653.3567 183.118993 643.201175 192.626292L635.206401 199.756767 634.558176 229.142965 633.693876 258.529163 548.128138 258.529163 547.263881 229.79119C546.399581 196.731717 544.454906 191.978067 528.465357 185.711892 520.038519 182.470768 518.093758 182.470768 510.315058 185.279742 504.697195 187.224417 499.511309 190.897692 496.486259 195.651342 491.948684 202.349666 491.516534 205.374716 491.516534 230.65549L491.516534 258.529163 402.925789 258.529163 402.925789 230.65549C402.925789 205.374716 402.493639 202.349666 397.956065 195.651342 394.931015 190.897692 389.745215 187.224417 384.127265 185.063667 375.700341 182.254714 374.187816 182.470768 364.896592 186.144042 349.339193 192.626292 346.746293 199.540713 346.746293 231.95194L346.746293 258.529163 257.075173 258.529163 257.075173 230.871565C257.075173 208.183691 256.426948 202.133591 253.185823 197.379899 244.974974 184.631517 229.63365 180.0939 217.317418 186.576192ZM199.815301 331.346434C200.031419 351.009258 202.624276 361.813007 209.538676 368.511332 214.292325 373.481056 216.885182 374.129281 228.76935 374.129281 240.437399 374.129281 243.462449 373.264981 248.216098 368.943482 255.346573 362.245157 258.155548 352.089633 258.155548 332.426809L258.155548 316.86941 346.746293 316.86941 346.746293 335.235784C346.746293 356.627207 349.771342 364.621982 360.359017 370.888157 372.891366 378.666856 392.770265 374.993581 399.03644 363.757682 400.548965 361.164782 402.277564 349.712808 402.925789 338.476908L404.006164 317.949785 447.869387 317.30156 491.516534 316.86941 491.516534 336.748309C491.732609 348.848508 492.812984 358.787957 494.541584 361.813007 501.672059 374.993581 524.143857 379.747231 535.595745 370.672082 545.103131 363.109457 547.696031 355.546832 547.696031 335.235784L547.696031 316.86941 634.126026 316.86941 634.126026 334.155409C634.126026 362.461232 641.040425 373.048906 660.703163 374.777506 681.878598 376.290031 692.898509 362.461232 692.466272 335.235784 692.250197 328.105309 692.250197 320.974834 692.250197 319.46231 692.466272 317.517635 702.621797 316.86941 735.68127 316.86941L778.896267 316.86941 778.896267 334.155409C778.896267 361.380857 785.810667 372.616756 803.528816 374.561431 815.629015 376.073956 825.136315 372.400681 831.186414 363.973757 834.643614 358.787957 835.940064 353.170008 836.804364 337.180459L837.884739 316.86941 858.195788 316.86941C880.451511 316.86941 889.310586 319.46231 897.73751 328.753534L903.139385 334.587559 903.78761 547.205346C904.21976 754.853409 904.21976 760.039209 900.114335 768.249972 891.471336 784.887832 924.530809 783.591382 512.691883 783.591382 166.539753 783.591382 144.28403 783.375307 137.36963 779.702033 133.264205 777.757358 127.862331 773.219783 125.485506 769.978658 120.947931 763.928558 120.947931 762.848183 120.947931 549.582171 120.947931 338.692983 120.947931 335.235784 125.269431 329.401759 133.04813 318.814085 139.962573 316.86941 171.293381 316.86941L199.815301 316.86941 199.815301 331.346434Z" fill="#000000" /><path d="M287.109596 470.282651C280.627347 472.875637 273.280797 482.815 273.280797 489.081175 273.280797 501.181374 281.275572 508.960073 293.807921 508.960073 312.39037 508.960073 320.817294 490.377625 308.50102 476.980975 301.802695 470.066576 294.023996 467.473633 287.109596 470.282651Z" fill="#000000" /><path d="M435.985262 469.634383C433.392449 470.066576 428.638713 473.523711 425.397588 477.413039 418.699177 485.4079 419.347488 495.995617 426.910113 503.990349 433.824513 511.336898 448.517612 511.120823 455.864161 503.774274 461.698186 498.156324 463.210711 486.488275 458.889211 478.493543 456.944536 475.036387 443.547887 467.257601 441.387137 468.337976 440.954987 468.554008 438.578162 469.202276 435.985262 469.634383Z" fill="#000000" /><path d="M580.971579 470.282651C574.273254 472.875637 567.14278 483.031075 567.14278 489.945431 567.14278 493.186686 569.73568 498.804549 572.760816 502.477824 577.514379 508.095709 579.891204 509.176148 587.885978 509.176148 600.418328 509.176148 608.197027 502.261749 608.197027 490.809774 608.197027 480.2221 604.955902 474.820225 596.312903 471.146951 587.885978 467.689751 587.237754 467.689751 580.971579 470.282651Z" fill="#000000" /><path d="M727.03827 470.930876C719.043496 474.820225 714.073771 486.2722 716.450596 494.699124 719.043496 504.20638 725.74182 509.176148 736.11342 509.176148 747.349362 509.176148 755.128019 501.613524 755.128019 490.809774 755.128019 480.2221 751.886894 474.820225 743.243894 471.146951 734.38482 467.473633 733.95267 467.473633 727.03827 470.930876Z" fill="#000000" /><path d="M281.275572 610.731392C270.255747 619.374392 271.984347 637.956841 284.300621 644.222951 291.647171 648.112279 295.104371 648.32844 302.45092 644.87124 314.98327 639.253291 317.792244 622.615517 308.06887 612.676067 300.29017 605.113443 289.486421 604.249143 281.275572 610.731392Z" fill="#000000" /><path d="M426.477963 612.676067C419.347488 619.806542 418.699177 625.208417 423.668988 635.580016 432.744138 654.81069 461.266036 648.112279 461.266036 626.937016 461.266036 608.138493 439.874612 599.279418 426.477963 612.676067Z" fill="#000000" /><path d="M573.408998 612.676067C566.494555 619.806542 565.41418 627.153048 570.383905 636.444316 576.650122 648.76059 595.232528 650.48919 603.875528 639.469366 619.865077 619.158317 591.559167 594.525768 573.408998 612.676067Z" fill="#000000" /><path d="M723.364996 609.650953C717.098821 613.972582 713.425546 625.856642 716.018446 632.771041 718.827421 640.333622 728.550795 647.46414 735.897345 647.46414 739.138426 647.46414 744.756419 644.87124 748.429737 641.846191 754.047644 637.092541 755.128019 634.715716 755.128019 626.720941 755.128019 618.942285 754.047644 615.917192 749.510112 611.811703 742.811744 605.545593 730.711545 604.681293 723.364996 609.650953Z" fill="#000000" /></svg>