<?xml version="1.0" standalone="no"?><!DOCTYPE svg PUBLIC "-//W3C//DTD SVG 1.1//EN" "http://www.w3.org/Graphics/SVG/1.1/DTD/svg11.dtd"><svg class="icon" width="200px" height="200.00px" viewBox="0 0 1024 1024" version="1.1" xmlns="http://www.w3.org/2000/svg"><path d="M540.857241 97.90878C525.238666 106.151939 524.3709 108.755064 523.720276 159.949446 523.286339 187.93276 523.937115 208.97451 525.238666 213.746865 531.746424 235.656316 559.078941 241.079447 575.3484 223.291576L580.771531 217.434594 580.771531 111.575071 572.962222 103.765761C563.417576 94.22105 551.920472 92.051798 540.857241 97.90878Z" fill="#000000" /><path d="M393.998888 157.129374C391.61271 157.997075 386.840354 161.901751 383.803401 165.806384 377.295643 173.398768 375.777166 188.149685 380.549522 196.826695 381.851073 199.429798 394.649663 216.349968 408.749805 234.57169 430.876181 262.988898 435.648493 267.978179 442.807113 270.147431 454.304195 273.618235 461.679567 271.232057 471.658129 261.470421 478.816662 254.094962 479.901288 251.708785 479.901288 243.031774 479.901288 234.137839 478.382811 231.317811 465.367296 214.180716 438.902502 179.038825 423.283797 160.383253 418.511441 157.780128 413.08831 154.743196 400.72357 154.309346 393.998888 157.129374Z" fill="#000000" /><path d="M697.694243 167.975637C690.96956 170.57874 629.145776 223.508502 624.807358 230.45011 620.035002 237.608643 619.818077 248.454906 624.156582 257.131916 631.315029 271.015132 651.923015 276.438264 665.372445 267.978179 675.784793 261.470421 733.053146 212.011507 734.571536 208.106809 737.391565 200.731328 735.873088 186.197315 731.534583 179.255771 724.8099 168.192605 709.408207 163.203281 697.694243 167.975637Z" fill="#000000" /><path d="M336.730621 308.326276C333.693667 310.278603 323.49818 319.172539 313.953469 328.283399 304.408758 337.39426 277.076176 362.774515 253.214398 384.900891 229.35262 407.027266 199.63386 434.793699 187.052195 446.724588L164.058118 468.417113 133.905465 474.49102C92.68971 482.951062 82.711105 485.988059 75.769562 492.278956 62.754025 504.643631 62.320174 506.379033 61.669398 571.239684 60.801697 652.803579 59.933996 651.068177 108.742179 674.712987 125.011573 682.522339 142.582518 690.982424 147.788724 693.585527 155.598033 697.273256 226.098741 758.663103 278.811578 808.122061L291.610168 819.836025 304.408758 863.00415C318.075049 908.992304 321.328927 916.584688 330.873639 923.743222 336.513695 927.864801 340.41835 928.298652 378.163344 928.949428 416.776039 929.600203 419.812993 929.383278 429.140779 925.044773 441.288593 919.187791 443.457845 915.933912 456.03951 884.262825L466.018072 858.882571 550.835846 858.231795 635.653664 857.797944 646.066119 884.262825C657.563071 913.330809 664.938443 923.743222 676.869419 927.214026 687.064906 930.034054 754.094853 930.034054 763.856446 927.214026 780.342765 922.658595 784.898282 913.330809 802.03529 852.374813 810.929226 821.354502 810.061525 822.439128 847.372668 790.768041 954.099893 700.093198 956.702996 697.707194 959.73995 689.247022 961.909203 682.739264 962.559978 660.179038 962.559978 586.641377 962.559978 502.691304 962.126128 491.628116 958.872249 485.771069 953.882968 476.660273 954.099893 476.877242 886.636139 416.355052 853.446576 386.419367 813.966179 351.060551 798.998337 337.39426 783.813526 323.944894 768.845813 310.929379 765.157932 308.760126 758.867165 304.855472 749.756217 304.638547 550.401996 304.638547 359.724697 304.638547 341.502976 304.855472 336.730621 308.326276ZM538.687989 402.254911C539.338808 423.079735 539.989584 440.433756 540.206509 440.650681 540.423347 440.650681 543.677226 441.952232 547.365042 443.253784 552.571248 444.989186 555.608202 444.989186 559.946707 442.819933L565.586763 440.21683 566.67139 402.254911 567.756016 364.292991 648.01836 363.642216C692.271112 363.42529 731.317658 363.642216 734.788527 364.292991 741.946995 365.594543 742.597771 366.245319 839.780285 453.883035L902.905533 511.151388 902.905533 663.866767 877.525279 685.776218C863.425137 697.707194 837.827957 719.616557 820.690862 734.367475 803.336842 749.118305 784.24742 765.604646 777.739662 771.027843 771.44883 776.450974 764.290296 783.826346 762.121044 787.514162 758.216389 793.804994 751.057856 815.280595 740.211593 853.025589L735.656163 868.861132 718.952918 868.210356 702.466599 867.559581 693.355738 843.914728C682.29255 814.629819 679.25551 809.423613 669.927811 803.783556 662.769277 799.228126 659.949249 799.228126 552.354323 799.0112 481.63669 798.794275 439.987128 799.445051 436.516237 800.963528 426.754601 804.868182 420.029918 815.063669 409.400581 841.962401L398.988168 868.644207 367.534007 868.644207 362.978576 850.639411C353.65079 815.49752 348.878435 800.095827 344.97378 792.286518 341.069126 784.260283 320.895077 763.652384 298.551776 744.779887 292.260943 739.573681 268.18224 717.664274 244.537388 696.188565 221.10946 674.712987 198.766159 654.972832 194.861504 652.369729 191.173775 649.766626 173.168979 640.221915 155.164183 631.327979L121.974619 615.058585 121.757694 595.969076C121.757694 585.556751 121.323843 568.419655 120.673089 558.007156 119.805367 539.568597 119.805367 538.917821 124.577722 537.833195 136.942483 535.013166 171.650524 528.288483 180.110587 526.986997 187.269164 525.902306 192.475327 522.865352 202.887739 513.320641 219.590983 497.918948 209.178571 507.680671 290.959392 431.53982 329.572087 395.747153 363.195502 365.811468 365.798605 364.943767 368.184782 364.292991 407.882104 363.859141 453.870258 363.859141L537.38648 364.292991 538.687989 402.254911Z" fill="#000000" /><path d="M281.197756 472.755618C274.906923 479.046451 274.689998 484.686507 280.113129 491.41119 284.017784 496.183589 285.10241 496.400471 321.328927 496.183589 362.978576 496.183589 365.798605 495.315845 365.364754 482.30033 364.930904 469.284728 362.3278 468.417113 322.196629 467.983263 287.054737 467.549369 286.187036 467.766338 281.197756 472.755618Z" fill="#000000" /></svg>