<svg version="1.0" xmlns="http://www.w3.org/2000/svg" width="800.000000" height="800.000000" viewBox="0 0 800.000000 800.000000" preserveAspectRatio="xMidYMid meet">
  <metadata>
    <rdf:RDF xmlns:rdf="http://www.w3.org/1999/02/22-rdf-syntax-ns#" xmlns:rdfs="http://www.w3.org/2000/01/rdf-schema#" xmlns:dc="http://purl.org/dc/elements/1.1/">
      <rdf:Description dc:format="image/svg+xml" dc:Label="1" dc:ContentProducer="001191330110MACRLGPT8B00000" dc:ProduceID="388732580" dc:ReservedCode1="uCP2DNrW/2isgCiJvEh9G0UM2b9vLxutIpMbRlbOqZ8=" dc:ContentPropagator="001191330110MACRLGPT8B00000" dc:PropagateID="388732580" dc:ReservedCode2="uCP2DNrW/2isgCiJvEh9G0UM2b9vLxutIpMbRlbOqZ8="/>
    </rdf:RDF>
  </metadata>
  <g transform="translate(0.000000,800.000000) scale(0.100000,-0.100000)" fill="#000000" stroke="none">
    <path d="M3820 5260 c-734 -47 -1455 -347 -2046 -853 -150 -128 -362 -334 -380 -370 -28 -54 -14 -76 164 -246 352 -336 630 -534 1007 -717 701 -339 1416 -425 2143 -258 517 119 990 349 1413 685 134 107 190 157 357 322 192 191 195 163 -33 385 -295 288 -582 499 -906 666 -201 104 -292 143 -479 207 -412 141 -846 204 -1240 179z m640 -203 c622 -103 1201 -378 1685 -802 124 -108 265 -247 264 -259 -1 -15 -239 -235 -359 -332 -509 -412 -1104 -667 -1722 -738 -157 -18 -456 -21 -609 -6 -656 65 -1302 347 -1827 796 -136 118 -302 273 -302 283 0 12 287 274 389 356 196 156 394 282 611 391 365 183 714 286 1140 338 19 2 157 3 305 1 234 -2 291 -6 425 -28z"/>
    <path d="M3840 5056 c-196 -36 -356 -122 -505 -271 -118 -118 -182 -218 -231 -362 -41 -120 -54 -199 -54 -323 0 -377 215 -708 564 -870 130 -61 238 -84 391 -83 207 0 363 47 528 156 214 143 359 357 412 610 20 90 19 295 0 389 -75 359 -348 646 -702 739 -101 27 -299 34 -403 15z m375 -97 c269 -67 496 -264 601 -524 224 -556 -162 -1166 -760 -1201 -348 -21 -678 174 -831 489 -62 129 -76 190 -82 352 -5 123 -3 152 17 230 61 252 226 464 449 579 199 102 396 127 606 75z"/>
    <path d="M3670 4604 c-147 -64 -183 -259 -68 -374 105 -105 279 -82 355 48 24 40 28 58 27 117 0 45 -6 81 -17 101 -23 44 -75 94 -114 110 -43 18 -139 17 -183 -2z m171 -87 c118 -78 66 -270 -73 -270 -91 0 -148 58 -148 152 0 50 3 57 44 97 40 40 48 44 93 44 35 0 60 -7 84 -23z"/>
  </g>
</svg>