<?xml version="1.0" standalone="no"?>
<svg viewBox="0 0 1024 1024" version="1.1" xmlns="http://www.w3.org/2000/svg" width="200" height="200">
  <path d="M800 256h-64V192c0-35.2-28.8-64-64-64H352c-35.2 0-64 28.8-64 64v64H224c-17.6 0-32 14.4-32 32s14.4 32 32 32h32v480c0 53.02 42.98 96 96 96h320c53.02 0 96-42.98 96-96V320h32c17.6 0 32-14.4 32-32s-14.4-32-32-32zM352 192h320v64H352V192z m384 608c0 17.64-14.36 32-32 32H352c-17.64 0-32-14.36-32-32V320h416v480z" fill="#ffffff"/>
  <path d="M384 400c-17.6 0-32 14.4-32 32v288c0 17.6 14.4 32 32 32s32-14.4 32-32V432c0-17.6-14.4-32-32-32zM512 400c-17.6 0-32 14.4-32 32v288c0 17.6 14.4 32 32 32s32-14.4 32-32V432c0-17.6-14.4-32-32-32zM640 400c-17.6 0-32 14.4-32 32v288c0 17.6 14.4 32 32 32s32-14.4 32-32V432c0-17.6-14.4-32-32-32z" fill="#ffffff"/>
</svg>