<?xml version="1.0" standalone="no"?><!DOCTYPE svg PUBLIC "-//W3C//DTD SVG 1.1//EN" "http://www.w3.org/Graphics/SVG/1.1/DTD/svg11.dtd"><svg class="icon" width="200px" height="200.00px" viewBox="0 0 1024 1024" version="1.1" xmlns="http://www.w3.org/2000/svg"><path d="M513.078546 64.84899C505.800838 69.423549 489.166078 87.097982 489.166078 90.216999 489.166078 91.464606 483.551847 92.296344 475.85827 92.296344 457.144165 92.296344 419.300086 97.494707 394.555881 103.524828 238.189136 141.784797 113.428436 267.585128 76.416054 424.159807 53.127431 522.512825 65.395567 625.6484 111.141157 717.139518 159.381961 813.621126 233.406643 883.279183 335.502483 928.816839 354.008653 937.134219 392.476536 948.778551 419.92389 954.392782 521.395988 974.978298 630.561539 956.264193 724.132064 902.617092 780.274379 870.387244 832.050069 821.522637 869.06241 766.004125 913.144524 700.088889 942.463289 607.973905 942.463289 535.612699 942.463289 522.512825 942.879158 521.057242 947.661651 518.56207 954.315556 515.027183 959.098049 504.422524 959.098049 493.193978 959.098049 475.519628 952.860014 430.813752 946.829913 405.653636 926.452332 320.608425 885.69717 249.286892 822.277148 187.73828 792.33458 158.419557 769.25385 140.953017 733.697134 120.783371 674.019849 86.890068 602.90625 65.264859 539.278293 61.937907 522.019771 60.898235 518.484843 61.314104 513.078546 64.84899ZM564.022498 121.615109C624.947349 130.764227 687.119723 154.884629 734.528789 187.73828 770.501457 212.69042 802.939239 245.128202 831.218331 284.635757 846.605484 305.845076 870.517952 351.7986 878.627397 375.087265 891.311402 411.475802 899.836716 454.726178 901.292258 488.411505L901.916061 505.046327 515.157828 505.046327 514.534046 310.835504 514.118218 116.624681 532.20852 118.080181C542.39731 118.91196 556.536856 120.367502 564.022498 121.615109ZM489.166078 329.965478L489.166078 511.492297 393.100339 607.350101C340.077042 659.95753 279.360168 720.258535 257.942914 741.260003L219.267055 779.519868 203.879944 758.72648C179.759542 726.49657 166.867603 704.455513 150.648712 668.27491 140.87579 646.441787 128.815589 601.73587 125.072768 573.664712 121.537903 546.217358 123.825161 475.311694 129.231479 449.319881 150.024908 349.095452 213.444952 258.020141 300.361552 204.165105 352.137243 171.935258 422.211211 150.310028 479.393157 148.646573L489.166078 148.438659 489.166078 329.965478ZM884.657498 547.6729C883.201956 583.645568 876.132183 618.578564 863.03231 653.719495 818.118458 775.153243 721.220981 861.86193 593.757132 894.923515 538.23862 909.270996 466.501176 908.855127 409.111296 893.883843 355.672129 879.952231 296.202862 849.38586 257.31911 815.908405 250.457272 809.878305 242.763695 804.056139 240.268481 802.808532 237.565333 801.768859 235.485988 800.105383 235.485988 799.273645 235.485988 798.441907 261.061931 773.073815 292.252107 742.507527 323.234347 712.14909 383.951221 652.055977 426.785728 609.221595L504.761166 531.03814 695.021234 531.661985 885.281301 532.077812 884.657498 547.6729Z" fill="#000000" /></svg>