<?xml version="1.0" standalone="no"?><!DOCTYPE svg PUBLIC "-//W3C//DTD SVG 1.1//EN" "http://www.w3.org/Graphics/SVG/1.1/DTD/svg11.dtd"><svg class="icon" width="200px" height="200.00px" viewBox="0 0 1024 1024" version="1.1" xmlns="http://www.w3.org/2000/svg"><path d="M348.862109 63.290185C200.482586 84.439679 86.408541 199.346381 68.256613 346.060591 65.092515 372.206029 67.090892 421.332857 72.419899 446.812052 101.562903 585.366287 213.97165 687.616599 356.522556 705.268933 377.005925 707.766904 418.472323 707.26731 439.455219 704.436275 489.914249 697.441954 539.37409 679.123495 577.509859 653.477651L589.499991 645.484208 598.492756 654.976434C603.488699 660.138909 610.149991 667.632824 613.480587 671.296583L619.64225 678.124306 616.811216 684.619033C612.647929 694.444388 613.147524 712.429785 617.976936 722.588204 620.474907 727.750679 632.465172 742.238915 650.284037 761.723095 665.937994 778.709303 707.570857 824.005858 742.708993 862.474623 825.308593 953.234265 825.142062 953.067733 836.133138 958.230208 844.626242 962.226963 846.957682 962.560026 867.774114 962.560026 898.582432 962.560026 900.913873 961.394306 929.057688 932.917428 951.372903 910.102619 953.704343 906.272395 956.868441 888.120467 959.033349 874.298356 951.872497 851.983142 941.547547 840.992066 939.049575 838.161031 918.566207 816.511943 896.250992 792.697945 873.769246 768.883947 831.80332 724.253518 802.993379 693.611731 774.016906 662.969944 747.205342 634.493115 743.042056 630.496311 729.71954 617.340326 711.068017 611.511725 695.080998 615.841543L686.421362 618.172983 670.267745 600.853712 654.280792 583.534441 660.942084 574.874772C672.765817 559.387381 683.090733 542.06811 692.916089 521.41821 776.514878 345.394465 687.753614 139.561623 501.737982 77.445359 466.100251 65.621625 446.283009 62.290996 403.151363 61.624871 376.339799 61.125276 361.018905 61.624871 348.862109 63.290185ZM427.298423 89.10256C492.745284 96.596475 550.698229 122.242319 598.326224 164.541291 649.284849 210.004378 681.258887 268.456934 693.082621 337.567487 696.08012 355.386352 696.579781 362.547204 695.747124 391.357146 695.080998 416.336863 694.081809 428.660191 691.417306 440.983518 663.440055 570.211925 558.691739 663.969133 426.132703 678.457369 327.712615 689.281913 222.964332 646.48333 161.181163 569.878862 104.060875 499.103062 82.078723 412.007046 99.397994 324.744565 105.226595 295.601561 121.713209 254.135229 137.700228 228.655917 152.354996 205.341547 180.165748 174.033601 202.480963 155.715141 227.460681 135.398304 266.429057 113.582684 296.904296 103.424265 311.892127 98.26179 344.032697 91.100938 360.519311 89.269092 377.67205 87.270714 410.145684 87.270714 427.298423 89.10256ZM651.116695 645.650673L638.793367 656.80828 630.799924 648.981302C626.303508 644.651551 620.474907 638.323289 617.643873 634.826128L612.481398 628.331402 623.972068 616.840665 635.462738 605.18353 649.45138 619.671833 663.440055 634.326534 651.116695 645.650673ZM719.39459 647.315987C723.224813 650.313553 746.705748 674.460614 771.518934 701.105646 796.332121 727.584147 828.472691 761.723095 842.794396 776.877457 907.242068 844.822289 924.894402 864.306469 927.059311 869.468944 930.056877 876.629797 930.056877 887.454341 927.059311 893.11641 925.727059 895.614382 916.401298 905.772801 906.242879 915.931219L887.924419 934.083148 872.103931 934.749273C862.77817 935.248868 854.118535 934.749273 850.621374 933.583553 844.45971 931.585176 832.469446 918.928786 753.700069 832.665493 733.549763 810.683342 713.732521 788.867722 709.402703 784.371372 657.611355 728.916399 644.45537 713.928568 642.623591 708.099967 639.12643 696.775762 642.123996 691.613354 665.105337 669.964265 690.917712 645.650673 696.246718 641.986981 705.572479 641.986981 711.068017 641.986981 714.232115 643.152701 719.39459 647.315987Z" fill="#000000" /><path d="M371.510387 140.061184C281.916466 150.719197 210.641004 199.512913 172.005707 276.450444 154.852968 310.922454 147.692115 341.564241 147.692115 382.197916 147.692115 412.839703 149.690476 428.327128 156.851328 452.64072 181.498 535.406852 249.109769 599.521461 334.373873 621.004051 379.670428 632.328223 429.463332 630.662909 472.928041 616.008074 513.228719 602.519027 542.038627 584.866693 571.348129 555.557157 606.98586 519.919393 627.302697 481.950255 638.293773 431.491292 643.289716 408.676417 643.622713 358.716981 639.12643 337.234424 628.301852 286.941925 607.818517 248.639691 572.180786 213.168525 535.87693 176.698104 495.243256 154.882484 443.951518 144.057939 427.798018 140.72731 385.66556 138.39587 371.510387 140.061184ZM444.784226 158.712707C540.040216 181.194453 609.483832 252.636446 625.637383 345.560996 629.301074 366.210896 629.301074 401.349033 625.637383 422.165464 608.817706 516.422266 536.709587 589.529573 440.620939 609.679879 419.971039 614.009697 372.009981 614.009697 351.027018 609.846411 303.06596 600.187586 263.264943 578.871561 228.959464 544.732613 195.32011 510.926728 175.336336 474.45634 165.677512 427.994065 160.8481 405.012725 161.347694 355.552883 166.510169 333.903795 183.329846 265.292836 225.961898 210.67052 286.579346 180.028733 309.727218 168.371531 332.375496 160.711085 356.356025 156.381267 375.174079 153.050638 426.299234 154.382906 444.784226 158.712707Z" fill="#000000" /></svg>