<?xml version="1.0" standalone="no"?><!DOCTYPE svg PUBLIC "-//W3C//DTD SVG 1.1//EN" "http://www.w3.org/Graphics/SVG/1.1/DTD/svg11.dtd"><svg class="icon" width="200px" height="200.00px" viewBox="0 0 1024 1024" version="1.1" xmlns="http://www.w3.org/2000/svg"><path d="M485.607357 68.959671C440.85902 73.401602 414.865501 78.172564 382.291344 87.714489 303.159174 111.075753 231.10119 155.82409 176.646413 215.707894 66.42073 336.462598 32.036897 509.368855 87.643287 662.862232 109.523907 723.404099 141.933548 774.568558 187.833497 820.797539 216.788336 850.081377 229.949612 860.939429 236.365701 860.939429 243.27537 860.939429 251.172136 853.700728 251.172136 847.284606 251.172136 840.703968 248.868912 838.071713 232.088303 824.252373 207.57541 804.181428 177.633508 769.962112 157.562563 739.362146 99.652951 650.852568 78.265878 546.220394 96.527148 441.094738 124.82389 277.894921 247.388269 148.914421 412.562277 108.443498 459.120224 97.091898 482.64607 95.77577 597.971747 98.408026L659.171678 99.724153 659.171678 266.543321 605.374899 288.917489C575.762095 301.256185 551.413685 311.291658 551.249219 310.962626 551.084703 310.79811 552.071798 297.143287 553.387926 280.691692 556.184697 247.13044 556.184697 246.965907 545.820193 244.004637 535.455688 241.207866 499.92031 240.22077 480.671878 242.194928 410.42357 249.762695 351.855894 279.704597 303.159174 332.678731 242.946338 398.485109 218.762495 498.839835 242.123726 586.197802 247.717301 606.762344 249.36246 609.230034 257.917289 609.230034 264.991475 609.230034 268.610859 606.433197 277.659203 594.423599L281.936617 588.830024 291.314026 598.536497C300.033371 607.74939 300.526919 608.736486 299.704339 614.988092 297.730148 631.439736 295.262409 679.97189 296.084989 688.691268 297.072084 700.042835 299.210792 703.004122 306.449493 703.004122 315.333354 703.004122 316.978514 698.891224 316.978514 675.858991 316.978514 665.000939 318.130125 645.423542 319.446253 632.262266 322.901088 597.055854 324.052699 601.333236 306.778525 583.236515 298.388212 574.352654 289.504351 566.291405 287.201128 564.97531 281.114038 561.849442 274.862432 565.139761 268.117278 575.175233 265.155991 579.452648 262.359253 583.236515 261.536624 583.401063 259.891481 583.894578 254.791486 563.494601 252.652779 546.878491 250.020557 527.794691 251.830199 486.172107 255.943065 466.101162 264.497927 423.656048 286.214032 380.059323 314.839806 346.827102 351.526862 304.381988 406.475187 272.794927 461.752545 262.594971 476.55898 259.962683 532.494401 258.317524 534.633108 260.456231 535.126623 260.949762 533.975045 274.933667 532.329885 291.714261 530.684726 308.494887 529.368598 324.123902 529.204082 326.427125 529.204082 332.678731 534.304076 338.272273 540.0622 338.272273 550.591155 338.272273 670.194247 285.627171 676.116821 278.388469 678.749076 275.09815 678.913592 267.859416 678.913592 178.033759L678.913592 81.298367 674.965209 76.691921 671.016826 72.085474 610.310476 70.933863C577.078222 70.440315 536.771783 69.617735 520.978285 69.124187 505.184754 68.63064 489.226708 68.63064 485.607357 68.959671Z" fill="#000000" /><path d="M491.200899 156.64667C481.329942 157.633766 476.55898 160.430537 476.55898 165.201499 476.55898 172.111169 480.507363 173.26278 503.046047 173.26278 517.194418 173.26278 530.026662 174.24986 541.213746 176.38855 575.268547 182.804738 581.849184 183.627318 584.316924 181.488578 587.607243 178.691807 587.442727 174.24986 583.987925 171.288589 580.039509 167.833754 577.078222 167.17569 558.981468 164.872484 550.591155 163.885372 538.910457 161.253116 533.152465 159.114409 522.294412 155.001511 511.765326 154.343447 491.200899 156.64667Z" fill="#000000" /><path d="M780.41993 163.556373C776.307031 166.024079 772.358648 175.566004 774.003808 179.514386 774.661872 181.324062 787.165083 194.320805 801.807003 208.633708 816.613438 222.78208 834.216644 241.536865 841.126313 250.091743 886.69723 306.685212 916.474616 372.162557 928.319764 441.094738 951.351996 576.820393 908.906883 709.913792 811.348927 807.636263 755.578022 863.407168 682.697459 902.397447 601.591098 919.836137 561.613723 928.555482 554.374956 928.884514 457.639646 928.555482 407.955831 928.390966 366.662329 927.568387 365.839749 926.910323 365.181685 926.252259 364.852653 889.565204 365.017169 845.47493L365.510717 765.355665 402.526805 747.587943C422.926782 737.881503 447.275208 726.20087 456.652551 721.594424L473.762143 713.368627 472.610597 732.452476C472.117049 742.981497 471.13002 757.129868 470.636406 763.875022 469.484761 778.516941 471.13002 781.478228 480.671878 783.616935 492.846058 786.413706 521.636349 787.400802 541.542778 785.426611 580.368541 781.80726 605.210514 774.733074 640.252345 757.294384 668.220055 743.310529 686.974873 729.655705 710.994201 705.471861 762.816724 653.649339 790.619918 586.691349 790.784434 513.317238 790.784434 482.552756 784.697344 443.562477 778.281222 433.527005 774.33284 427.439915 766.436074 428.591527 755.24899 437.310872 750.148996 441.42377 745.049002 444.714089 744.061906 444.714089 743.07481 444.714089 737.974816 440.765706 732.710306 435.994744L723.168381 427.439915 725.63612 404.407683C726.952248 391.739955 728.597407 371.66901 729.255471 359.823862 730.242567 339.259369 730.242567 338.107757 726.787732 334.652922 722.839349 330.704539 718.890966 330.375508 714.449036 333.665826 711.981297 335.640018 711.158717 340.246464 709.184526 366.075468 708.032914 382.691578 706.223239 402.104459 705.236143 409.178645 704.413563 416.417347 703.590984 425.794755 703.590984 430.072137L703.590984 437.968935 719.713546 452.117307C728.432891 460.014072 737.316752 467.252741 739.290944 468.07532 744.390938 470.543158 750.478028 468.568901 757.716729 461.988263 761.171564 458.862526 764.790915 456.230205 765.613495 456.230205 766.436074 456.230205 768.081234 461.165684 769.232845 467.252741 781.900573 535.855922 764.626399 609.39455 722.510317 665.494487 679.40714 722.910552 616.562016 758.939543 545.162129 767.329857 530.520243 768.975016 492.352511 768.645984 490.378352 766.671793 490.049287 766.342761 490.871867 752.523422 492.352511 735.742795 496.136377 691.981554 496.136377 691.817038 491.529931 688.033171 489.391224 686.388012 485.936389 684.907368 483.962197 684.907368 475.078336 684.907368 353.830085 743.639561 347.907511 750.878262 345.11074 754.168581 344.946224 761.242767 344.946224 848.600733 344.946224 904.371639 345.604288 944.678045 346.591384 947.145784 347.413963 949.449007 349.388155 951.916747 351.033314 952.739326 352.842989 953.726422 395.452619 954.549002 458.462226 955.04255 561.613723 955.536097 563.258883 955.536097 583.987925 951.752231 656.045876 938.755471 711.981297 916.87485 765.942527 880.516827 792.59411 862.584589 809.868284 848.436217 832.736 825.568501 901.010117 757.294384 943.126199 674.542864 958.91973 577.807488 961.881017 559.546218 962.53908 548.852682 962.53908 514.633366 962.703596 488.310814 961.881017 467.910837 960.564889 457.875365 945.92297 355.217415 904.629468 270.491704 835.368255 201.065975 799.668295 165.366015 789.139275 158.291829 780.41993 163.556373Z" fill="#000000" /><path d="M446.94611 169.807946C446.123481 171.617621 445.30095 174.24986 445.30095 175.730487 445.30095 178.856339 452.704168 181.982109 456.98155 180.665998 460.929965 179.34987 462.739641 172.440201 460.107385 169.149882 457.146098 165.530531 449.084751 166.024079 446.94611 169.807946Z" fill="#000000" /><path d="M397.42681 178.198259C381.468764 182.804738 363.207494 190.372406 340.833326 201.559523 309.41078 217.188538 306.943041 219.327245 309.575296 227.553042 311.549487 233.804632 317.143029 233.146584 331.126885 224.920787 360.081691 207.811129 385.581662 196.624012 410.752602 190.207923 415.359048 189.056344 416.675176 187.904699 417.004208 184.285365 417.662272 179.020838 414.865501 174.90794 410.917118 175.072439 409.436474 175.072439 403.349384 176.553099 397.42681 178.198259Z" fill="#000000" /><path d="M272.559208 251.078822C262.523736 256.83688 260.385029 261.772392 265.320507 267.201368 268.939858 271.314283 271.901145 271.149767 275.520528 266.872353 277.001139 264.898162 281.114038 261.60781 284.568872 259.469135 290.820478 255.356204 292.301122 251.243338 288.681771 247.623987 285.555968 244.498184 282.101133 245.320764 272.559208 251.078822Z" fill="#000000" /><path d="M776.307031 272.301379C772.68768 275.92073 774.33284 280.527176 783.216701 290.233617 793.087657 301.091669 811.842475 327.085189 820.56182 341.562592 826.319878 351.433548 831.584389 354.559351 836.026319 350.940001 839.974702 347.649682 838.987606 344.030331 830.432777 329.88196 813.158603 301.091669 788.152179 270.327188 782.065089 270.327188 779.926382 270.327188 777.458643 271.149767 776.307031 272.301379Z" fill="#000000" /><path d="M224.191521 303.394893C214.156048 311.291658 185.694806 360.975473 176.975412 385.981897 174.836721 391.904471 175.001253 392.562535 177.962573 394.701242 181.746391 397.498013 186.023822 397.662529 188.162529 394.865758 189.149625 393.878662 192.933491 385.652865 196.717358 376.93352 205.272187 357.520638 217.610883 335.640018 228.304403 321.162615 236.530217 310.140046 238.01086 305.5336 234.391493 301.914249 231.594738 299.117478 229.127032 299.44651 224.191521 303.394893Z" fill="#000000" /><path d="M826.484394 381.704482C824.016655 384.007706 825.661815 391.739955 830.761809 401.939943 835.368255 411.317352 836.684383 412.63348 841.290829 413.127028 845.239212 413.45606 846.719855 412.962512 847.542435 410.330257 848.694047 406.54639 842.606957 387.956088 838.82309 383.349642 836.355351 380.552871 828.623102 379.565775 826.484394 381.704482Z" fill="#000000" /><path d="M163.320654 423.820597C161.839978 425.794755 160.030302 433.033391 159.043207 439.614095 157.069048 453.762466 158.385143 456.723753 166.281925 455.901173L171.381902 455.407626 172.862546 441.752769C174.343189 427.275399 172.862546 420.036697 168.091584 420.036697 166.775456 420.036697 164.636716 421.681857 163.320654 423.820597Z" fill="#000000" /><path d="M854.945653 438.956031C853.300493 440.930189 853.300493 444.220607 854.781137 454.091498 855.768232 461.165684 857.742424 476.959214 859.223067 489.133394 860.703711 501.307574 862.677902 512.330208 863.500482 513.317238 866.297253 516.772073 874.358534 515.949493 875.510146 512.165626 876.16821 510.191435 875.34563 499.662415 873.864986 488.639846 872.548859 477.617278 870.574667 462.975359 869.587572 456.230205 868.764992 449.485052 866.955317 442.24635 865.639189 440.272159 862.677902 435.994744 857.90694 435.33668 854.945653 438.956031Z" fill="#000000" /><path d="M150.323862 483.868884C148.020638 486.336623 147.52709 490.614038 147.52709 506.572084 147.691606 540.297919 153.778696 588.994573 158.549675 593.765535 164.801298 599.852625 173.52061 592.449407 170.559323 583.565546 167.104488 573.201042 163.814136 541.614013 163.320654 514.468883 162.827073 485.020496 161.839978 480.907597 155.752888 480.907597 154.272244 480.907597 151.804505 482.223724 150.323862 483.868884Z" fill="#000000" /><path d="M856.919844 546.220394C856.097264 547.865554 854.781137 554.281708 854.123073 560.69783 851.655334 585.04619 835.203739 638.842904 827.636006 647.233217 824.016655 651.1816 825.332783 655.788046 830.597293 657.597722 834.216644 658.913849 835.861803 658.584817 838.494058 656.117029 844.416632 650.688052 855.768232 622.884857 862.34887 597.549402 867.448864 578.301102 871.397247 549.839778 869.752088 546.549459 867.448864 542.436593 858.894035 542.272044 856.919844 546.220394Z" fill="#000000" /><path d="M163.978685 621.56873C160.852882 625.352596 174.836721 655.294498 180.923827 658.25572 186.352853 660.88804 191.288332 659.571913 192.439943 655.129982 193.262523 652.168695 191.123849 647.891281 178.127056 626.010627 173.685126 618.607443 167.927068 616.797833 163.978685 621.56873Z" fill="#000000" /><path d="M195.565746 684.578271C194.414135 685.40085 193.427039 687.375108 193.262523 689.184783 192.768975 696.423484 217.4464 734.7557 235.87212 755.484709 241.301179 761.571799 242.946338 762.558894 246.565689 761.736315 251.336652 760.420187 253.475359 754.991161 251.00762 750.384714 250.020557 748.575039 243.439886 740.02021 236.365701 731.136349 229.127032 722.417004 219.256042 708.268632 214.320548 699.713803 207.410894 687.539623 204.614123 683.920273 201.652836 683.591307 199.514129 683.426725 196.717358 683.920273 195.565746 684.578271Z" fill="#000000" /><path d="M821.3844 687.375108C814.639246 697.739612 797.85862 715.342818 786.177988 724.062163 769.561877 736.894407 766.60059 740.184726 768.739298 743.804077 774.003808 752.029874 788.645727 744.297624 810.361832 721.923456 830.597293 700.865415 836.026319 693.133166 834.545676 687.375108 833.065032 681.617049 825.168267 681.617049 821.3844 687.375108Z" fill="#000000" /><path d="M746.858677 768.8105C739.455459 774.239526 737.481268 777.529845 738.961912 782.136292 740.936103 788.223382 747.352225 787.729834 755.413506 781.149196 762.98124 775.062106 764.790915 769.797596 760.842532 765.849213 757.716729 762.72341 754.097379 763.54599 746.858677 768.8105Z" fill="#000000" /><path d="M695.365186 805.826588C690.429708 808.952391 681.545847 813.394321 675.623273 815.86206 662.791029 821.291086 658.842581 824.252373 659.50071 828.529788 660.32329 834.12333 664.765221 835.603974 673.484566 833.30075 684.178168 830.503979 708.855494 816.191092 711.816781 811.091098 713.955488 807.307231 713.955488 806.484651 711.158717 803.523364 707.045818 798.916918 706.058723 799.081434 695.365186 805.826588Z" fill="#000000" /><path d="M613.929794 838.236229C602.907225 842.020096 601.426582 843.007191 599.781422 847.284606 597.642715 853.20718 599.123359 858.800722 603.400773 860.116849 608.500768 861.762009 620.674947 859.458786 624.787846 856.168467 628.078165 853.536212 628.242648 852.549116 626.926553 845.145898 625.281394 836.262037 623.142687 835.110426 613.929794 838.236229Z" fill="#000000" /><path d="M412.726793 839.881388C409.60099 843.007191 410.42357 849.094281 414.536469 851.726536 416.51066 853.042664 421.117041 854.358791 424.736457 854.523307 428.355808 854.852339 435.759026 857.320078 441.352568 860.445881 453.691264 867.191035 469.155762 870.316838 497.452571 871.797482 518.675062 872.949093 558.816952 870.316838 566.549202 867.355551 569.016941 866.368455 570.333068 864.55878 570.333068 861.926525 570.333068 854.358791 567.700846 853.700728 539.404071 855.839435 508.804072 858.142658 471.13002 856.003951 457.639646 851.068472 453.197716 849.423313 444.313855 846.29751 437.897733 843.994287 422.7622 838.565261 415.194533 837.413649 412.726793 839.881388Z" fill="#000000" /></svg>