<?xml version="1.0" standalone="no"?><!DOCTYPE svg PUBLIC "-//W3C//DTD SVG 1.1//EN" "http://www.w3.org/Graphics/SVG/1.1/DTD/svg11.dtd"><svg class="icon" width="200px" height="200.00px" viewBox="0 0 1024 1024" version="1.1" xmlns="http://www.w3.org/2000/svg"><path d="M499.053804 65.046943C496.395654 66.375993 482.772889 77.67292 468.983992 90.298898 441.4062 115.883115 366.31486 184.661466 318.801313 228.187862 301.855922 243.638072 256.335951 285.004761 217.461231 320.224593 63.125269 460.273264 72.594752 451.302175 67.11242 462.26684 62.460744 471.736389 62.128481 473.5637 61.630087 495.493046 61.131694 515.927244 61.463956 520.080526 64.454319 528.054827 74.588327 555.134227 107.980715 567.760204 136.555296 555.466489 139.379528 554.30357 145.858614 549.651894 150.676438 545.498612 155.660393 541.34533 160.312069 538.188836 160.976594 538.68723 161.807251 539.185623 162.471776 632.05301 162.637907 745.022283 162.804039 972.788271 161.807251 956.341274 173.768703 959.830031 178.254248 961.159081 277.933017 961.491344 515.999145 961.159081L852.08273 960.660687 856.568275 956.009012 861.219951 951.523467 861.718345 743.693232 862.050607 536.029063 870.024909 542.840512C881.321836 552.97452 889.794531 557.293933 901.589852 559.45364 927.340201 564.105316 953.422813 548.655057 960.400327 524.566071 961.729377 520.246657 962.560033 508.617467 962.560033 496.323752 962.560033 469.24442 959.901933 461.270085 945.946905 447.315074 940.464573 441.66656 883.647674 389.8336 819.68713 331.853783 715.024422 236.826689 638.770163 167.383813 562.682036 97.608674 527.7945 65.711468 523.47512 62.721105 512.510455 62.721105 507.858713 62.887236 501.877986 63.884024 499.053804 65.046943ZM564.011153 137.812445C592.253471 163.562793 651.562272 217.55546 695.919325 257.925362 740.276377 298.295264 806.064365 358.102525 842.114853 390.996519 878.331473 423.724415 912.388386 454.624801 918.036849 459.442608 931.991877 471.570191 933.487059 475.391211 933.487059 497.985065 933.487059 518.917607 931.659615 524.566071 923.186919 528.885484 917.040062 532.041978 904.081822 532.374241 898.433358 529.550009 896.273651 528.387123 887.302562 520.57892 878.663735 512.272422 870.024909 503.965791 843.443904 479.544493 819.68713 458.113557 776.326865 418.906575 725.490693 372.555947 620.329591 276.365934 589.429106 247.957485 559.857804 221.044217 554.707734 216.392541 549.723796 211.906997 539.423656 202.437513 532.11388 195.293868 519.654034 183.332399 517.992721 182.335628 511.513601 182.335628 505.532875 182.335628 503.539299 183.332399 497.558573 189.313142 490.913322 196.290656 425.95599 255.765655 329.599846 343.649104 304.015629 366.907483 248.860043 417.245262 206.994976 455.621588 165.129877 493.997915 128.414863 526.725711 125.590631 528.387123 121.769612 530.546797 117.782461 531.211322 110.804947 530.712928 94.690213 529.71614 89.540143 521.90797 89.540143 498.64959 89.540143 472.566979 77.246428 485.857482 228.924289 347.802386 303.517235 280.186954 373.126242 216.724804 383.592513 207.089189 444.894956 150.438405 510.516747 90.963423 511.513601 90.963423 512.17806 90.963423 535.934899 112.062096 564.011153 137.812445ZM570.157944 269.056158C601.390625 297.464607 647.575155 339.661953 672.660945 362.421939 697.746769 385.348056 723.663249 408.938698 729.976238 415.085555 736.455358 421.066281 750.576517 434.024521 761.541181 443.992349 772.505846 453.960275 793.272256 472.733044 807.725678 485.857482L833.808289 509.780353 833.476027 721.099378 832.977633 932.418369 729.643975 932.916763 626.144186 933.249026 626.144186 790.04386C626.144186 691.52801 625.479661 644.512857 624.316742 640.027312 621.824806 630.890091 615.677915 623.248052 607.371351 618.762508 600.393837 615.10762 599.89541 615.10762 515.168489 614.609226 417.981755 614.110832 416.81877 614.110832 406.352499 625.740022 403.029873 629.39491 399.707248 635.209505 398.71046 638.698262 397.547541 642.851544 396.883016 692.690929 396.883016 789.213204L396.883016 933.249026 293.549358 932.916763 190.049569 932.418369 189.551175 721.265509 189.218912 510.278714 206.16427 494.496308C215.633786 485.857482 252.514964 452.298963 288.067026 419.903362 386.250614 330.690864 437.419049 283.841842 474.964719 249.120404 493.737554 231.676586 510.018386 217.389329 511.181338 217.389329 512.344257 217.223198 538.759065 240.481577 570.157944 269.056158ZM605.543907 636.206292L611.19237 642.519281 611.19237 933.249026 412.167094 933.249026 411.502569 923.613411C411.336437 918.463342 411.004175 853.50601 411.004175 779.577589 411.004175 652.487158 411.170306 644.678988 413.994538 640.359575 415.655851 637.701474 419.310789 634.212717 422.301135 632.385273 427.451172 629.228779 430.607666 629.228779 513.673308 629.561108L599.89541 630.059385 605.543907 636.206292Z" fill="#000000" /></svg>