<?xml version="1.0" standalone="no"?><!DOCTYPE svg PUBLIC "-//W3C//DTD SVG 1.1//EN" "http://www.w3.org/Graphics/SVG/1.1/DTD/svg11.dtd"><svg class="icon" width="200px" height="200.00px" viewBox="0 0 1024 1024" version="1.1" xmlns="http://www.w3.org/2000/svg"><path d="M277.047501 65.492424C262.331963 67.311198 253.899431 69.791345 240.837392 76.570413 225.625792 84.506882 207.603393 102.363939 200.493672 116.74879 191.895797 134.109817 190.407709 142.707659 188.754277 180.240546 187.927595 199.255004 186.108788 231.000882 184.786026 250.511369 183.463298 270.021857 181.47918 299.783617 180.487122 316.648615 179.329703 333.513613 178.006975 355.008217 177.510946 364.598118L176.353544 381.959145 122.947718 382.785861 69.376549 383.612576 65.408314 388.242183 61.440079 392.871791 61.440079 451.0726C61.440079 503.651677 61.770766 509.604029 64.416255 512.745615 69.872578 519.524583 72.848754 520.020646 115.176592 520.020646L156.016357 520.020646 148.575901 528.618488C116.16865 567.308776 102.279829 615.258247 93.681987 718.101697 92.359242 734.801351 91.20184 749.020859 91.20184 750.012918 91.20184 750.839633 88.060321 751.501006 84.257429 751.666349 74.171499 751.666349 66.069687 754.973211 63.58954 759.768162 62.101452 762.744338 61.440079 775.641101 61.440079 806.560263L61.440079 849.38413 66.23503 854.17908C70.533951 858.478001 72.187382 858.97403 81.11591 858.97403L91.20184 858.97403 91.20184 902.789956C91.20184 951.896861 91.697869 954.873037 101.453113 958.014556 104.759975 959.006614 132.702962 959.667987 173.542711 959.667987 246.128305 959.83333 248.939171 959.502644 253.072716 950.574116 254.230151 947.763283 254.891523 931.890344 254.891523 902.789956L254.891523 858.97403 769.108609 858.97403 769.108609 902.789956C769.108609 933.047745 769.769982 947.763283 771.092726 950.739459 775.060961 959.667987 776.383706 959.83333 850.126735 959.83333 909.154227 959.83333 919.074814 959.502644 923.869764 957.18784 926.84594 955.699752 929.987459 952.888919 930.648832 951.070145 931.310204 949.086028 931.640891 928.914168 931.475547 906.262161 931.144861 883.610154 931.475547 863.768981 931.971577 862.115549 932.798292 859.47006 934.617067 858.97403 942.057507 858.97403 961.567994 858.97403 962.560053 856.32854 962.560053 803.584087L962.560053 763.075024 957.765103 757.784044C953.796868 753.31978 951.81275 752.493065 943.049565 751.831692L932.963635 751.17032 932.13692 744.225909C931.640891 740.58836 930.814175 730.006401 930.318146 720.91253 928.830058 697.929837 922.05099 644.358668 917.752069 623.856122 909.154227 581.528284 894.43869 549.45172 873.274771 527.295743L866.33036 520.020646 907.831482 520.020646C933.955694 520.020646 950.655349 519.359273 953.135495 518.201871 962.229367 514.068327 962.560053 511.918899 962.560053 451.403253 962.560053 392.706448 962.064024 388.57287 954.788927 385.100664 953.135495 384.273949 928.334028 383.28189 899.729669 382.785861L847.646588 381.959145 845.662471 352.197385C844.670412 335.828416 842.190266 297.7995 840.206148 267.872429 838.387374 237.779949 836.07257 198.097602 835.245855 179.41383 834.419139 159.076627 832.765708 142.046286 831.27762 136.589963 825.159925 114.433986 811.271103 95.419528 791.760616 82.357422 776.383706 71.940806 762.164198 67.145855 741.00028 65.327081 722.151165 63.67365 291.432352 63.838993 277.047501 65.492424ZM751.582239 93.93144C773.572873 100.379821 789.941841 114.268643 799.366399 134.27516 804.492036 145.353148 804.492036 146.014521 805.649437 178.587114 806.31081 196.774857 808.46027 234.307711 810.279045 262.085387 812.263162 289.86303 814.908652 330.041407 816.231397 351.370669 817.554142 372.699931 819.04223 393.863849 819.538259 398.493457 819.868945 402.957721 820.695661 429.412619 821.19169 457.190262 821.687719 484.967905 822.514435 510.761365 823.010464 514.564323 824.002523 522.996822 828.962816 529.445203 840.371491 537.050986 862.858155 552.09721 879.392466 584.50446 888.982367 631.792591 893.94266 656.098029 900.887071 709.173169 902.375159 734.636008L903.532561 753.154437 511.834657 752.823751 120.136885 752.327721 120.632914 739.926988C122.121002 700.74067 130.884187 640.059714 139.316686 609.80199 145.269038 587.976633 158.000458 561.852454 168.086388 550.278436 172.219966 545.648828 180.487122 538.373798 186.439507 534.07481 201.65104 523.162165 201.981727 521.83942 201.981727 483.314474 201.981727 465.788104 203.139128 431.727489 204.461873 407.587328 207.603393 350.87464 214.87849 234.63843 216.201234 220.749609 216.697264 214.797223 217.689322 195.452129 218.350695 177.760399L219.508097 145.353148 225.460449 132.787072C236.703781 108.977663 257.040984 94.923499 284.653284 91.781979 290.605636 91.120607 395.9292 90.624578 518.613791 90.789921 726.284742 90.955264 742.488368 91.28595 751.582239 93.93144ZM173.046649 419.492098C172.881338 424.783012 172.715995 443.136048 172.550652 460.497124L172.219966 491.912316 89.548409 491.912316 89.548409 411.059533 95.004732 410.563504C97.815565 410.232818 116.66468 410.067475 136.671196 410.067475L173.046649 410.067475 173.046649 419.492098ZM934.121037 450.907224L934.451723 491.912316 851.780166 491.912316 851.780166 467.441502C851.780166 454.048743 851.284137 435.861 850.622764 427.097815L849.630706 411.224876 854.425656 410.398161C857.071146 410.067475 875.920261 409.736788 896.422807 409.902131L933.625008 410.067475 934.121037 450.907224ZM934.451723 806.064234L934.451723 832.519132 89.548409 832.519132 89.548409 779.609335 934.451723 779.609335 934.451723 806.064234ZM226.783194 895.349515L226.783194 931.725001 119.310169 931.725001 119.310169 858.97403 226.783194 858.97403 226.783194 895.349515ZM904.689963 895.349515L904.689963 931.725001 797.216938 931.725001 797.216938 858.97403 904.689963 858.97403 904.689963 895.349515Z" fill="#000000" /><path d="M289.282891 119.063593C271.425835 124.023887 256.048925 137.747365 249.93123 154.28171 245.797652 165.359665 244.970936 185.696868 240.837392 371.0465 238.522538 477.858151 238.522538 486.125307 241.002702 488.93614 243.648191 491.746973 253.899431 491.912316 511.33876 491.912316 752.243611 491.912316 779.029196 491.58163 781.344 489.266859 784.816205 485.959898 784.816205 471.905799 780.682627 301.767735 778.69851 215.789315 776.714392 164.698293 775.556991 160.399339 770.76204 143.369048 759.684052 130.637611 742.984397 122.701142L731.906408 117.410162 514.480213 117.079476C339.547198 116.914133 295.565929 117.244819 289.282891 119.063593ZM737.032045 134.440503C754.227729 142.211629 762.494884 156.100451 763.652286 179.41383 764.975031 203.719268 770.431354 476.20472 769.604638 477.362122 769.273952 478.188838 652.872367 478.684867 511.173351 478.684867 369.474302 478.684867 253.072716 478.188838 252.742063 477.362122 252.411343 476.700783 252.742063 452.725998 253.568778 424.121639 254.230151 395.517281 255.883582 326.238516 257.37167 270.352543 260.01716 157.257853 259.851817 159.076627 271.425835 145.849178 277.874216 138.574081 285.976029 133.613787 295.400586 131.298984 298.211419 130.637611 396.755915 130.306925 514.480213 130.306925L728.599546 130.637611 737.032045 134.440503Z" fill="#000000" /><path d="M232.2395 576.898677C215.705205 582.189657 202.14707 593.763675 194.210633 609.305927 189.911679 617.573083 189.580993 619.88792 189.580993 636.587541 189.580993 653.287196 189.911679 655.601999 194.375943 664.530528 217.193293 710.991943 283.495882 711.653315 306.809261 665.687929 323.012886 633.776741 309.454751 595.086453 276.716814 579.874853 265.473483 574.583873 243.813535 573.095785 232.2395 576.898677ZM272.748613 594.59039C284.322598 600.377399 290.109607 606.329751 295.896616 619.061204 299.368821 626.501611 299.86485 629.643131 299.203478 639.729061 297.550047 665.1919 279.858334 683.214366 254.726197 685.033008 238.522538 686.190525 228.436625 682.222241 216.531921 670.48288 209.091481 663.04244 206.611367 659.074205 204.461873 651.468422 197.682806 628.320336 207.603393 605.007006 228.767311 594.59039 237.19981 590.291469 240.837392 589.464754 250.757945 589.464754 260.678532 589.464754 264.316081 590.291469 272.748613 594.59039Z" fill="#000000" /><path d="M751.747582 577.394773C734.882584 583.512402 721.489792 595.747792 714.214695 612.11676 711.238519 618.565208 710.411803 623.194749 710.411803 636.587541 710.411803 652.129794 710.74249 653.948568 715.868126 664.199841 722.481851 677.757977 735.874643 690.324054 749.267435 695.615033 756.211846 698.425866 761.833512 699.252582 773.242187 699.417925 786.800322 699.417925 789.115126 698.921895 799.035713 694.126945 812.263162 687.513254 823.83718 675.773859 829.954875 662.54641 836.07257 649.649647 836.237913 626.666954 830.450904 612.11676 825.655954 599.88137 812.924534 586.653921 799.862428 580.370932 786.965665 574.087811 764.809688 572.765099 751.747582 577.394773ZM793.083361 593.433022C817.223455 604.841597 827.970758 634.272738 816.562083 657.751394 804.492036 682.38765 776.218363 692.308171 751.747582 680.56881 733.394496 671.805625 724.135282 657.420774 724.135282 637.414257 724.135282 617.738492 735.047927 600.873429 753.070327 592.606306 763.486943 587.976633 782.336058 588.307352 793.083361 593.433022Z" fill="#000000" /></svg>