<?xml version="1.0" standalone="no"?><!DOCTYPE svg PUBLIC "-//W3C//DTD SVG 1.1//EN" "http://www.w3.org/Graphics/SVG/1.1/DTD/svg11.dtd"><svg class="icon" width="200px" height="200.00px" viewBox="0 0 1024 1024" version="1.1" xmlns="http://www.w3.org/2000/svg"><path d="M934.883087 77.571251C911.684759 96.389475 857.014573 144.732845 838.845253 162.25326L817.269185 183.018197 786.12178 181.233743C768.925816 180.098128 738.102863 178.313641 717.500152 177.015833 680.837059 174.582442 595.992824 169.71566 592.423851 169.71566 590.477105 169.71566 578.310182 178.313641 466.860871 258.939999 307.717096 373.958283 277.867498 395.372125 235.688688 425.546174 210.705937 443.391009 164.958153 476.160708 134.135216 498.38568 103.15002 520.610652 74.598231 541.051169 70.542579 543.971206 62.26905 549.649183 59.835659 555.327031 62.431276 562.140461 63.242406 564.411691 72.002614 577.227615 81.898404 590.692314 91.631969 603.994852 138.677497 668.72312 186.371994 734.262387 233.904233 799.80172 284.84322 869.883383 299.605792 889.999416 314.206138 910.115449 329.779841 931.367064 334.159945 937.531655 343.244605 949.69861 345.840222 951.645323 353.7893 951.645323 358.493856 951.645323 365.145125 947.265219 395.643626 924.391343 437.335662 893.243937 474.323238 865.827731 545.540516 813.104258 612.377657 763.625306 619.353378 758.434072 670.454542 720.473171 716.202343 686.567922 768.276912 647.958118 829.273915 603.183787 848.903269 588.745602 867.234815 574.794224 869.830432 572.198542 874.04831 567.980664 875.183893 563.438334 884.755231 519.150617 915.902637 373.633831 925.960653 325.290462 925.960653 319.774775 925.960653 316.854706 924.176166 312.636828 921.418323 309.230081 918.822706 306.147785 910.711402 295.440865 903.249003 285.707301 895.786604 275.81151 887.513074 265.266816 885.079683 262.022294L880.375127 256.182156 897.733317 239.310644C929.367401 208.325465 950.45679 175.069152 958.730319 143.435036 963.434875 125.590168 963.921554 89.089302 959.54145 80.977999 954.187989 70.757756 944.778877 69.622174 934.883087 77.571251ZM938.289834 116.505508C936.018669 136.945993 929.205174 156.8998 918.173802 175.393572 907.953559 192.751762 884.106327 220.816904 870.641563 231.523776L864.801424 236.066123 850.849982 217.572351C843.063131 207.352108 836.736314 198.754126 836.736314 198.267448 836.736314 195.834057 935.694217 106.447492 938.614287 106.447492 938.938739 106.447492 938.776513 110.989822 938.289834 116.505508ZM633.142594 197.294092C645.634067 198.105222 680.674833 200.214193 711.011109 202.160874 741.347384 203.945361 772.170338 205.892073 779.470511 206.378784L792.773049 207.514334 783.039484 218.221255C763.572356 239.310644 752.216531 260.075581 747.836427 281.976101 741.834062 312.799054 753.838791 340.539713 778.65938 352.868894 806.724491 366.982562 835.114053 351.571085 835.600731 322.208167 835.762957 310.203437 833.005114 301.281003 826.516071 293.1697 815.971377 279.704936 803.317743 274.189266 786.93291 275.649284L776.712667 276.622641 779.146059 270.620276C783.039484 261.37339 794.881987 244.664104 807.048943 231.686019L818.080316 219.68129 830.247271 235.579444C836.89854 244.339652 855.06786 267.862433 870.479337 287.978466 885.728587 308.094498 898.382221 325.614914 898.382221 327.074949 898.219995 330.157244 889.297561 372.984927 867.559267 475.349578L850.52553 554.840353 820.838159 576.740872C794.719761 596.045775 698.519701 667.425246 590.80159 747.240473 572.145592 761.029689 538.240343 786.17473 515.528693 803.046242 492.817043 819.917753 462.805171 842.142725 449.016004 852.525193 435.226739 862.745436 409.10839 882.050338 390.93907 895.515102 372.931976 908.979866 357.358273 920.011239 356.547143 920.011239 354.60043 920.011239 349.895874 913.684422 267.971708 800.775077 127.970609 608.212763 93.416456 560.356039 94.06536 559.869361 94.552038 559.382683 110.287967 548.026825 206.488027 478.756325 225.306251 465.291561 256.291399 442.904364 275.434107 429.115147 294.576784 415.163705 335.133302 385.963013 365.469577 364.062493 395.805852 342.324199 433.117816 315.394672 448.204873 304.363299 463.454124 293.331926 484.219029 278.407127 494.439304 270.944728 504.659546 263.644555 532.075752 243.690732 555.27408 226.657011 603.130771 191.616179 595.181694 194.698442 633.142594 197.294092ZM800.5599 292.196343C808.346751 295.440865 812.077951 298.847612 815.809151 306.310012 820.513707 315.719124 819.378124 328.372757 813.37576 332.266183 809.969012 334.537348 799.262091 333.563992 792.773049 330.31947 780.930545 324.154879 771.196981 306.147785 775.252633 297.387578 778.334928 290.574083 790.66411 288.140692 800.5599 292.196343Z" fill="#000000" /><path d="M517.962133 371.687118C495.737112 388.234178 463.129737 412.243636 445.771482 425.059496 328.806485 511.039249 299.119114 532.777607 275.596334 549.973571 261.158213 560.680491 248.017885 571.06296 246.720093 573.171866 245.097832 575.605355 244.611154 578.687585 245.097832 581.76988 246.071189 586.149984 269.593969 618.595199 352.491491 729.882284 381.692184 769.140993 381.692184 769.140993 388.343453 769.627671 394.508044 770.114349 396.779209 768.654315 437.822405 738.155813 461.345185 720.473171 508.715198 685.270146 543.107125 659.638395 728.207072 522.232912 707.766587 537.968841 707.766587 532.290929 707.766587 528.235277 707.117683 527.261921 703.548709 526.937468 700.141962 526.613016 690.73285 532.777607 658.125345 557.111518 635.413792 573.982997 566.629857 625.246468 504.983998 670.99422 443.500317 716.904198 391.912427 754.37842 390.452392 754.37842 387.856775 754.540646 258.724822 582.256591 259.698179 579.8232 259.860405 579.336538 273.325169 569.116247 289.38555 557.111518 305.608157 545.269014 365.307351 501.143458 422.248702 459.289197 479.027827 417.272644 534.671369 376.391674 546.027227 368.118145 557.220793 359.844615 567.116519 352.057764 567.765553 350.597729 569.874475 347.028755 566.305453 341.675295 562.087543 341.675295 560.140862 341.837521 541.160347 354.653381 517.962133 371.687118Z" fill="#000000" /></svg>