<?xml version="1.0" standalone="no"?><!DOCTYPE svg PUBLIC "-//W3C//DTD SVG 1.1//EN" "http://www.w3.org/Graphics/SVG/1.1/DTD/svg11.dtd"><svg class="icon" width="200px" height="200.00px" viewBox="0 0 1024 1024" version="1.1" xmlns="http://www.w3.org/2000/svg"><path d="M745.195843 63.005179C739.86416 65.837635 737.698164 69.503167 737.698164 75.50131 737.698164 80.999608 740.19739 84.498525 747.528454 89.663593 750.860756 92.162819 751.193986 92.829279 749.194605 95.495121 747.861684 97.161272 680.382574 184.134347 598.907863 288.768622 464.949266 461.04869 450.620368 478.876437 445.78853 479.542898 442.789459 480.042743 360.481606 480.375973 262.845164 480.209358 165.208723 480.042743 82.90087 480.542588 80.068413 481.375664 71.237814 483.541627 70.737968 486.374116 71.737659 520.696824 73.40381 575.179958 83.400715 622.165413 103.894371 672.816399 140.88292 763.954852 209.861566 839.931332 294.168801 881.918334L312.829691 891.415394 312.829691 923.572106C312.829691 953.562822 312.996306 955.895433 316.161992 959.06112 317.994758 960.893886 320.827215 962.393422 322.493366 962.560037 323.992901 962.560037 391.638627 962.560037 472.780175 962.393422L620.234527 962.393422 624.066674 958.061429C627.565591 954.062667 627.732206 952.729746 627.732206 922.572416L627.732206 891.415394 645.060175 882.75141C698.543618 856.259611 751.360601 810.440462 788.848996 758.289939 839.166752 688.144987 869.324083 592.341245 869.324083 502.369165 869.324083 491.039339 868.824238 488.873343 865.325321 484.707965L861.326559 480.042743 767.855495 480.375973C716.371433 480.709203 674.384431 480.209358 674.384431 479.542898 674.384431 477.710132 909.978164 250.280521 919.64184 242.782858L923.973832 239.283941 928.972284 244.282394C932.137971 247.281466 935.803503 249.280847 938.469344 249.280847 944.134257 249.280847 952.631627 240.950092 952.631627 235.285179 952.631627 229.620266 923.140756 190.632319 917.309228 188.632955 910.977855 186.466959 904.646482 188.79957 900.814335 194.797713 897.148803 200.962471 897.815263 206.460803 902.980331 212.125682L906.312633 215.791214 883.31975 237.951021C870.490389 250.280521 829.503077 289.768313 791.848067 325.923787 754.359673 361.912646 703.375456 411.064097 678.549758 435.056669L633.563734 478.709822 559.919865 480.042743C519.265784 480.709203 486.109382 480.709203 486.109382 480.042743 486.109382 479.376283 494.939915 467.546611 505.769962 453.550944 516.599943 439.721892 547.090504 400.567346 573.582353 366.744483 615.569305 312.92781 700.043154 204.128158 754.026442 134.316436 763.690118 121.98692 772.020872 111.156939 772.687332 110.323864 773.520408 109.657403 775.853019 110.157249 777.8524 111.656784 787.01623 117.988158 799.345746 111.656784 799.345746 100.493574 799.345746 93.82897 798.346056 92.829279 772.853947 74.668235 753.693212 60.839183 751.027371 59.672877 745.195843 63.005179ZM839.666597 525.861892C839.000137 549.854465 833.835069 584.010558 827.003851 610.002511 781.351317 785.281583 630.731311 901.4123 456.951741 895.247541 325.992282 890.582319 209.361721 816.60522 146.881063 698.475189 126.887219 660.486816 110.059129 609.336051 103.894371 566.682589 100.728684 545.355857 98.562688 514.032254 100.062224 510.200041 101.061914 507.700848 132.552199 507.534232 470.614178 507.867463L840.166443 508.367308 839.666597 525.861892ZM402.635223 918.407038C433.625629 924.238567 483.77677 925.738102 515.267022 921.73934 544.757959 917.907193 581.246597 909.576439 596.575185 903.245065 599.074344 902.07876 599.407641 903.578296 599.407641 918.906884L599.407641 935.735008 341.154255 935.735008 341.154255 902.911835 360.648221 908.576748C371.311586 911.57582 390.305706 916.074427 402.635223 918.407038Z" fill="#000000" /><path d="M156.711353 560.017985C154.545357 563.850132 158.544119 591.841533 164.708861 615.667424 176.038704 659.487259 198.698356 704.140036 228.022611 740.128895 240.851973 755.957328 274.008375 787.280965 279.173443 788.613885 283.172205 789.613576 287.837427 786.114659 287.837427 782.115897 287.837427 781.282821 283.505435 776.784214 278.340367 772.118992 273.008685 767.287154 262.345319 757.123634 254.847657 749.292725 211.027872 704.306651 181.537002 644.158604 170.04056 575.846418 167.208104 559.018295 166.874841 558.351834 162.542882 557.851989 159.877007 557.518759 157.544412 558.351834 156.711353 560.017985Z" fill="#000000" /></svg>