<?xml version="1.0" standalone="no"?><!DOCTYPE svg PUBLIC "-//W3C//DTD SVG 1.1//EN" "http://www.w3.org/Graphics/SVG/1.1/DTD/svg11.dtd"><svg class="icon" width="200px" height="200.00px" viewBox="0 0 1024 1024" version="1.1" xmlns="http://www.w3.org/2000/svg"><path d="M389.116813 62.809864C387.287241 63.641487 384.293397 65.970033 382.463825 67.965929 379.137331 71.625073 379.137331 74.286268 378.638357 226.140757L378.305707 380.656374 72.434575 380.656374 67.777484 384.648167 63.120392 388.63996 62.288768 508.227423C61.789794 573.925648 62.122444 630.143432 62.787742 633.13721 63.619366 636.630095 66.114236 639.790265 69.440731 641.786161 74.596796 644.946264 79.087563 645.112655 226.451252 645.112655L378.305707 645.112655 378.638357 798.963007 379.137331 952.813359 383.794423 957.304126 388.28519 961.961218 508.537951 962.460192C596.52372 962.792841 629.788728 962.293867 633.281413 960.96327 643.260962 956.805152 642.761988 966.119335 642.761988 798.630358L642.761988 645.112655 794.616444 645.112655C935.659793 645.112655 946.637224 644.946264 952.125939 642.11881 962.438071 637.129069 962.271746 639.29129 961.772772 508.393748L961.273798 390.303207 955.785082 385.479791 950.462692 380.656374 642.761988 380.656374 642.761988 226.639665C642.761988 119.526588 642.263014 71.791398 640.932416 69.296527 636.608007 61.312941 635.942675 61.312941 510.201198 61.479266 445.500888 61.479266 390.946385 62.144565 389.116813 62.809864ZM614.486788 242.606869C614.486788 408.931574 614.154139 402.611235 623.634647 406.935678 626.794816 408.4326 665.714797 408.931574 779.97987 408.931574L932.166974 408.931574 932.166974 616.837455 624.632595 616.837455 619.975503 620.829281 615.318412 624.821041 614.819438 779.669341 614.486788 934.517641 408.244154 934.517641 408.244154 782.330537C408.244154 618.667094 408.410479 622.991469 400.094244 618.500702 397.932023 617.336429 345.539741 616.837455 243.749021 616.837455L90.563968 616.837455 90.563968 408.931574 242.751073 408.931574C410.406375 408.931574 402.755439 409.430548 406.414583 398.785767 407.74518 394.960299 408.244154 348.722031 408.244154 242.606869 408.244154 159.610875 408.743128 91.251388 409.408427 90.752414 409.907401 90.087115 456.311927 89.588141 512.529744 89.588141L614.486788 89.588141 614.486788 242.606869Z" fill="#000000" /><path d="M266.868155 749.398245C264.539643 751.061492 249.071412 765.698066 232.438975 782.164212 202.167845 811.936334 199.007676 816.094452 203.997417 821.084193 208.820833 825.907609 213.145276 822.74744 245.911242 789.981473 279.841482 756.051233 281.504729 753.556363 274.352767 748.899271 271.358889 746.903374 270.360974 747.069699 266.868155 749.398245Z" fill="#000000" /><path d="M745.883305 754.055337C744.719032 755.385934 744.386383 758.213454 744.885357 760.209351 746.04963 764.533793 812.246862 831.396324 815.407032 831.396324 817.901902 831.396324 824.055916 825.408635 824.055916 822.74744 824.055916 821.583167 808.587719 805.117021 789.626702 786.156005 754.864839 751.227817 750.706721 748.233972 745.883305 754.055337Z" fill="#000000" /></svg>