<?xml version="1.0" standalone="no"?><!DOCTYPE svg PUBLIC "-//W3C//DTD SVG 1.1//EN" "http://www.w3.org/Graphics/SVG/1.1/DTD/svg11.dtd"><svg class="icon" width="200px" height="200.00px" viewBox="0 0 1024 1024" version="1.1" xmlns="http://www.w3.org/2000/svg"><path d="M98.925318 72.069998C90.405302 74.855387 77.625294 85.341561 71.890651 94.353117 62.059863 109.918531 58.782934 132.693189 63.698318 151.20784 70.907572 177.750967 105.151484 231.001101 152.830805 289.166563 164.136227 302.929666 164.136227 303.257359 166.102368 317.020462 172.328534 360.931315 178.063177 387.146749 187.238546 413.034491 201.984777 454.979186 225.414789 481.522313 259.6587 494.957723L270.964106 499.381512 272.766417 507.901594C274.568761 516.749303 282.433358 530.512439 287.34872 533.297796 288.82337 534.117028 290.953375 535.4278 291.936453 536.247032 293.574885 537.230045 292.755686 547.716285 288.331864 583.270967 285.218732 608.503323 282.105682 631.441828 281.614126 634.227218 280.794894 639.142579 280.303354 639.306458 268.178683 641.27255 228.527871 647.334935 202.640097 676.008066 196.577844 720.410458L195.594699 728.275089 186.41933 728.275089C176.752389 728.275089 167.576987 732.37125 165.446983 737.778184 164.791597 739.252802 160.040049 784.802119 154.796962 838.871452 144.474635 946.354733 144.474635 943.24165 153.97773 950.778588L158.565431 954.38321 332.898069 954.38321C522.140736 954.38321 512.965334 954.874749 519.1915 945.535501 522.796122 939.800875 522.632276 935.049327 515.259185 860.499186 511.654562 824.289117 507.72228 782.672115 506.247629 768.08978 504.936857 753.343598 502.9707 739.744341 501.987556 737.614337 499.202231 731.552018 492.156833 728.275089 481.998352 728.275089L473.150643 728.275089 472.003718 718.771994C467.252171 677.482685 441.855969 649.464939 402.205124 641.436462L388.278175 638.651073 381.56047 589.005594 375.006611 539.523961 383.362781 531.003945C391.71895 522.811622 397.28973 511.342435 397.28973 502.822353 397.28973 499.873117 398.928195 498.56228 405.15436 496.596188 429.567484 488.240018 452.342208 469.233828 466.924527 444.656858 481.342967 420.243735 493.467605 377.315961 501.496049 321.935856 503.953844 304.240438 504.445253 302.76582 510.179944 296.539654 540.983145 262.623469 587.187783 196.593311 599.803961 168.411719 608.487758 148.586297 610.781674 129.580107 606.030126 113.687 600.459346 95.008503 590.792405 82.228478 576.865455 74.855387 561.300041 66.826911 540.000001 69.612301 527.383823 81.409246L523.779201 84.686175 521.813043 78.787703C520.829965 75.510773 518.536114 72.069998 516.897649 71.250765 514.931492 70.267686 450.048292 69.612301 334.700381 69.612301 156.599306 69.612301 155.452348 69.612301 151.847726 72.88923 149.881568 74.855387 148.243104 78.132317 148.243104 80.262321 148.243104 85.177715 146.440793 85.505408 142.672324 81.2454 138.412316 76.657699 124.32152 71.086919 114.818425 70.267686 110.066877 69.939993 103.185326 70.759226 98.925318 72.069998ZM120.880744 97.957739C127.10691 100.579282 136.937698 111.229303 141.525399 119.913165 147.423871 131.546264 149.553875 143.998596 151.520033 176.112503 152.503112 193.644074 154.469269 217.565658 155.616195 229.362571 156.926966 240.995686 157.746199 250.826491 157.418506 250.990353 156.926966 251.645723 133.333075 220.842587 123.338441 206.424099 110.558417 187.909448 95.156849 160.710935 90.896841 148.750143 84.342982 130.399339 89.422223 107.952373 102.202247 99.596204 108.592259 95.336196 113.343807 94.844656 120.880744 97.957739ZM495.597609 102.709286C495.597609 116.472389 487.405286 221.989513 484.128356 250.826491 476.099847 320.788931 467.41605 370.598256 458.404461 397.30523 446.935209 431.712988 428.912098 455.962264 406.628979 466.939978 387.786635 476.279226 375.661997 478.08157 333.389609 477.917691 301.111855 477.917691 294.88569 477.589998 283.580284 474.476915 262.607936 468.906102 253.760227 463.990741 240.980203 450.883024 211.651686 421.063017 199.035508 373.875186 184.289326 240.012624 180.84855 208.717949 174.458538 120.404705 174.458538 104.675444L174.458538 95.827735 495.597609 95.827735 495.597609 102.709286ZM567.690053 99.432357C576.701609 105.494676 581.617003 117.127775 581.617003 132.037804 581.617003 143.834733 581.125464 145.473246 573.09702 161.694014 568.345439 171.197109 558.350805 188.237141 550.813868 199.542547 537.542304 219.367986 511.818409 253.448034 510.83533 252.628802 510.671484 252.301109 511.163023 245.911097 511.982255 238.210313 514.276106 219.531816 516.569891 193.316381 518.372268 163.823985 520.174579 136.789351 522.796122 126.958563 531.971524 113.031614 538.033843 103.856212 549.830789 95.827735 557.040033 95.827735 559.98927 95.827735 564.740784 97.4662 567.690053 99.432357ZM369.435831 506.099283C369.435831 506.754668 366.650441 510.359291 363.045819 513.800132L356.655807 520.190079 336.011152 520.190079C313.072647 520.190079 308.3211 518.879307 302.422627 510.523104 300.456469 507.901594 298.981851 505.443897 298.981851 505.116204 298.981851 504.788511 314.874958 504.624664 334.208841 504.624664 353.542724 504.624664 369.435831 505.28005 369.435831 506.099283ZM349.774255 547.224745C349.774255 547.716285 352.395799 567.37786 355.508882 590.80797 358.621964 614.401796 361.243508 634.718757 361.243508 635.865683 361.243508 637.667994 355.836575 638.159533 334.208841 638.159533L307.338021 638.159533 307.993407 633.571832C309.304179 626.854127 318.643427 551.484753 318.643427 548.699363 318.643427 546.897052 321.75651 546.405513 334.208841 546.405513 342.728857 546.405513 349.774255 546.733173 349.774255 547.224745ZM403.024356 668.143436C414.657455 671.911905 428.256712 681.906605 434.319031 690.754248 439.070628 697.963493 443.494433 710.088131 445.460591 721.229691L446.44367 726.636624 223.612478 726.636624 223.612478 722.868155C223.776324 710.579671 231.804801 691.737327 241.144016 682.07032 247.370182 675.680374 261.952517 668.307217 273.09411 666.013432 277.026425 665.1942 306.027249 664.866507 337.48577 665.030353 385.984324 665.358014 396.142805 665.849586 403.024356 668.143436ZM479.212962 757.767452C479.212962 761.044382 493.139961 906.703889 494.778377 920.303145L495.761455 928.167776 335.19192 928.167776C246.878676 928.167776 174.294692 927.676236 173.966999 926.857004 173.311613 925.873925 181.831596 830.679129 187.730102 773.660559L189.696292 754.490523 334.372688 754.490523C477.410586 754.490523 479.212962 754.490523 479.212962 757.767452Z" fill="#000000" /><path d="M301.275702 186.598676C300.784162 187.909448 300.620316 190.694805 300.948009 192.824842 301.439548 196.429464 302.258781 196.593311 315.694191 197.084883L330.11268 197.576389 330.440373 288.83887 330.931912 380.101351 335.19192 380.592891C337.48577 380.920584 340.27116 380.101351 341.254239 378.790579 342.728857 376.988268 343.220397 352.083606 342.892704 280.810394L342.401164 185.124058 322.248049 184.632486C305.863403 184.304826 302.094934 184.632486 301.275702 186.598676Z" fill="#000000" /><path d="M230.494045 790.864438C227.708639 793.649828 227.708639 869.346895 230.494045 872.132285 233.607095 875.245368 425.635169 874.917675 428.256712 871.804592 429.567484 870.329974 430.059023 857.713796 429.73133 829.69605L429.239791 789.717513 330.931912 789.225974C255.726385 788.898281 231.968647 789.38982 230.494045 790.864438ZM416.951306 831.498362L416.951306 860.990725 241.635589 860.990725 241.635589 832.645287C241.635589 816.916026 242.127161 803.644463 242.78253 803.152923 243.274053 802.497537 282.761051 802.005998 330.440373 802.005998L416.951306 802.005998 416.951306 831.498362Z" fill="#000000" /><path d="M633.88396 389.604446C617.499379 397.469076 609.30699 413.198337 610.617827 434.826103 611.600906 449.899945 615.533221 459.730799 625.036316 470.05306L632.081714 477.589998 598.329342 477.589998C579.814692 477.589998 562.774659 478.245384 560.480809 479.228462 558.186958 480.047695 554.74615 483.160778 552.943872 486.110014 549.830789 491.189254 549.666942 494.466184 549.666942 543.456277 549.666942 593.757174 549.830789 595.723299 552.943872 598.836382 554.910029 600.802506 557.040033 601.785618 557.859266 601.294029 559.006191 600.638693 559.49773 661.58961 559.49773 770.055937 559.49773 953.727824 559.170037 945.535501 568.017812 951.761667 571.294676 954.055517 591.611637 954.38321 756.605027 954.38321 925.530732 954.38321 941.751532 954.219364 945.520001 951.761667 954.85925 945.535501 954.36771 954.219364 954.36771 771.530555L954.36771 603.260302 958.463872 599.491767 962.560033 595.723299 962.560033 543.29243C962.560033 507.573901 961.904648 489.55079 960.757722 486.765465 956.989254 478.736923 951.254627 477.589998 914.553019 477.589998L880.964494 477.589998 886.69912 471.527679C896.202215 461.041538 900.953763 449.080713 901.772995 434.498377 902.428381 417.458345 899.806837 408.774483 890.959128 398.943695 881.61988 388.621367 873.099864 385.180592 858.025989 386.16367 836.562102 387.310596 811.985132 403.695242 774.300445 442.199161 764.961197 451.702256 757.096567 459.566887 756.93272 459.566887 756.768874 459.566887 747.757318 450.883024 736.943451 440.233004 697.784146 401.729085 675.337181 387.146749 653.873294 386.16367 644.370199 385.835977 640.765577 386.327517 633.88396 389.604446ZM665.342546 415.492188C674.190256 419.752261 698.931072 440.39685 719.084187 460.550031L735.304987 476.770765 718.264955 477.262338C668.783289 478.573076 633.556332 456.945343 636.997108 427.125287 638.144033 416.475266 645.844883 409.593715 654.52868 411.396026 656.82253 411.887565 661.574078 413.689876 665.342546 415.492188ZM869.659088 413.853723C880.145262 421.8822 878.670643 441.543775 866.873698 454.3238 852.946749 469.397674 828.205932 477.589998 796.419718 477.589998L776.594296 477.426151 798.877415 455.634539C822.635153 432.204527 837.381334 420.407582 850.325205 414.345262 860.483686 409.593715 864.252155 409.429868 869.659088 413.853723ZM936.344599 543.947816L936.344599 584.0902 575.882377 584.0902 575.882377 503.805432 936.344599 503.805432 936.344599 543.947816ZM700.897164 598.017149C703.518773 599.164042 703.682619 608.503323 703.682619 763.665925L703.682619 928.167776 585.713165 928.167776 585.713165 763.829772C585.713165 673.386523 586.040857 599.000228 586.532397 598.508689 587.843169 597.361763 697.6203 596.870224 700.897164 598.017149ZM796.255872 762.682846L796.255872 927.348543 717.609569 927.348543 717.118029 763.174386 716.790336 599.000228 727.768049 598.344809C733.994215 598.017149 751.85348 597.853303 767.58274 597.853303L796.255872 598.017149 796.255872 762.682846ZM927.824583 763.010539L928.152276 928.167776 810.182821 928.167776 810.182821 599.000228 815.589755 598.344809C818.375144 598.017149 844.754425 597.853303 874.082942 597.853303L927.333044 598.017149 927.824583 763.010539Z" fill="#000000" /></svg>