<?xml version="1.0" standalone="no"?><!DOCTYPE svg PUBLIC "-//W3C//DTD SVG 1.1//EN" "http://www.w3.org/Graphics/SVG/1.1/DTD/svg11.dtd"><svg class="icon" width="200px" height="200.00px" viewBox="0 0 1024 1024" version="1.1" xmlns="http://www.w3.org/2000/svg"><path d="M521.849521 62.122586C477.841384 66.290023 440.167752 84.126655 410.662296 114.96569 390.991993 135.469481 377.656194 158.640399 370.154807 185.311997L367.320949 195.313879 321.145745 196.147367C274.970541 196.980854 274.803877 196.980854 271.636591 200.981611 269.969633 203.148661 268.469339 206.149216 268.469339 207.982889 268.469339 209.649863 264.968692 228.820075 260.63454 250.657446L252.799758 290.331448 251.966288 340.007299 250.966103 389.516453 238.130396 364.845225C230.962404 351.176031 223.627714 338.673719 221.627345 336.840047 218.293395 333.839492 214.62605 333.672795 163.783316 333.172702 124.109314 332.839307 108.106355 333.172702 104.605708 334.67298 98.604598 337.173442 94.437161 345.841711 96.604228 351.509426 99.771481 359.8443 101.605153 360.344393 138.94539 361.17788L174.11856 362.011368 177.952603 372.013217C186.78757 394.517378 204.624201 444.193229 216.293025 478.69961 255.800296 595.554549 267.135759 647.230837 270.136314 724.411707 271.803289 767.419659 273.803658 759.41818 251.1328 799.425577L238.463791 821.763041 238.463791 866.104572 230.295614 869.60522C213.625849 876.939909 203.624016 892.776171 203.123923 912.446474 202.790528 931.783383 211.792193 946.786157 229.295462 955.954519 240.96422 962.122326 260.467859 962.289023 272.470079 956.454611 287.806248 948.786527 297.474719 935.117333 299.475072 917.447399 302.308929 893.109566 284.472298 869.938615 260.301162 866.437967L252.633077 865.437783 252.132985 846.767664 251.632893 828.097545 265.802179 803.926409C273.636961 790.59061 280.971617 778.254996 282.138533 776.254626 284.3056 772.920676 284.805693 772.920676 438.667474 772.920676L593.029349 772.920676 594.196164 783.422618C594.863021 789.590425 596.529996 795.591535 598.530366 798.258695L601.864316 802.759527 595.696508 809.927519C586.361449 821.096251 583.027499 829.931217 583.860987 842.100134 584.694474 855.269236 590.195491 864.437598 600.530736 869.438522 607.865425 872.939169 608.865677 872.939169 736.722584 872.939169L865.413045 872.939169 869.413784 868.771732C874.914801 863.437413 875.081499 854.935841 869.747179 849.934916L865.913137 846.267571 740.556626 846.267571C619.034157 846.267571 615.033417 846.100874 612.032862 843.100319 607.53203 838.599487 609.032241 834.765445 619.534216 822.929923 624.535174 817.262208 628.535914 811.761191 628.535914 810.427611 628.535914 808.427241 644.70557 807.927149 737.389374 807.593754 845.242649 807.093662 846.076136 806.926964 856.077985 803.259619 875.081499 796.258325 893.418223 778.421694 900.086122 760.585062 904.586954 748.582843 929.258183 615.558214 927.924603 610.390625 925.757535 602.055751 920.589913 601.222263 876.081684 601.222263L835.240799 601.222263 835.240799 513.706082C835.240799 414.521077 835.574194 417.021539 823.571975 415.187867L816.904075 414.020984 816.904075 293.665398 809.569386 254.491488C805.568646 232.987512 801.734604 212.650385 801.234512 209.316468 799.067444 197.147535 798.734049 197.147535 748.058013 196.147367L703.049691 195.313879 698.548859 181.144593C678.211765 115.965875 621.868014 70.790856 551.021582 62.789376 536.185505 61.122401 533.518345 61.122401 521.849521 62.122586ZM563.190498 92.128134C586.028054 96.795664 611.699467 109.464673 629.536099 124.634144 649.873192 142.304078 667.043033 168.975676 672.877412 191.97993L673.87763 196.147367 396.49301 196.147367 397.493195 190.979745C402.327422 166.641945 424.99828 134.135901 449.169416 117.132757 466.339258 104.963841 488.843418 95.128689 508.68042 91.294647 521.016034 88.794184 549.354607 89.294277 563.190498 92.128134ZM444.001794 228.153285C443.335004 231.153839 440.501147 245.989916 437.833987 261.159387L432.666365 288.664473 357.152403 289.164565C315.811426 289.331263 281.805138 288.997868 281.805138 288.331078 281.805138 286.664103 291.473592 231.820629 292.640475 226.48631L293.473962 222.818965 445.168677 222.818965 444.001794 228.153285ZM618.033972 252.824513C621.034527 268.827472 623.368325 283.663548 623.534989 285.663918L623.534989 289.49796 535.18532 289.49796C472.173636 289.49796 446.835651 288.997868 446.835651 287.664288 446.835651 286.664103 449.502811 271.661312 453.003458 254.324807L459.004568 222.818965 535.85211 223.15236 612.699652 223.652452 618.033972 252.824513ZM781.39751 252.824513C784.398065 268.827472 786.898528 283.496851 787.231923 285.330523 787.732015 288.664473 786.73183 288.664473 713.384935 289.164565L639.037889 289.49796 633.8703 262.492967C631.036376 247.490193 628.202519 232.487453 627.535729 228.986772L626.535544 222.818965 701.216085 223.15236 776.063191 223.652452 781.39751 252.824513ZM539.85285 302.833759L790.232477 302.833759 790.232477 417.855026 278.471188 417.855026 278.471188 360.51109C278.471188 299.999902 278.471188 300.499995 285.972575 302.000272 287.806248 302.500364 401.994027 302.833759 539.85285 302.833759ZM219.126882 382.681856C236.130026 416.021354 241.63101 426.523296 243.631413 429.023758 245.298388 430.85743 293.473962 431.190825 527.017143 431.190825L808.569201 431.190825 808.569201 601.222263 595.696508 601.222263 589.528701 557.547555C586.194752 533.543083 582.694154 512.705831 581.860617 511.372284 577.859877 503.704233 571.358675 500.703678 539.019362 491.035224 520.849336 485.700904 503.846192 481.200072 501.345797 481.200072 491.010486 481.200072 484.675981 490.368434 488.676788 499.703493 490.843822 505.20451 495.34462 507.038183 533.184984 518.040217 554.022136 524.041393 558.856364 526.041696 559.356456 528.708906 560.523338 534.209873 584.694474 711.909396 587.861727 738.247599L588.861911 747.916053 285.139088 747.916053 285.139088 732.246489C285.139088 651.564905 259.801053 549.045916 200.956823 392.016916 194.955747 376.180654 190.121519 362.844855 190.121519 362.178065 190.121519 361.677973 194.122259 361.17788 199.123184 361.17788L208.291546 361.17788 219.126882 382.681856ZM899.58603 632.39476C899.085937 635.061787 896.418777 650.231358 893.58492 666.234284 878.748844 751.750095 877.581961 755.750835 864.912952 767.086264 861.245607 770.586912 854.744405 774.921046 850.410271 776.921416 842.908884 780.422063 841.075211 780.422063 731.554961 780.922156L620.534434 781.422248 619.534216 776.754719C619.034157 774.254256 614.366627 741.248154 609.365753 703.741219 604.364778 666.067586 599.697248 633.728324 599.363853 631.561273L598.530366 627.893862 900.586215 627.893862 899.58603 632.39476ZM263.968507 885.274784C274.803877 889.942313 281.805138 900.77765 281.805138 913.113264 281.805138 922.281626 278.471188 929.616316 271.303196 935.784123 262.468229 943.452207 253.79996 945.452577 242.631262 942.285325 215.959663 934.450543 212.292285 899.110675 236.796816 886.108271 243.631413 882.440926 256.300422 881.940834 263.968507 885.274784Z" fill="#000000" /><path d="M656.874487 687.07152C655.707604 688.404983 655.207512 691.238907 655.874302 693.73937L656.874487 697.906807 750.558475 697.573412C837.574564 697.073319 844.242464 696.906622 845.909438 694.072764 847.243018 692.072395 847.243018 690.40542 845.909438 688.238352 844.242464 685.571193 837.574564 685.404445 751.55866 684.904469 671.043773 684.571008 658.708159 684.904469 656.874487 687.07152Z" fill="#000000" /><path d="M663.542386 732.746582C661.375386 736.914019 661.375386 737.247414 664.542571 740.247969 666.876336 742.581734 676.878185 742.915129 750.89187 742.915129 833.407127 742.915129 834.740707 742.915129 837.907959 739.414481 840.241724 736.914019 840.575119 735.413742 839.074841 733.246674 837.574564 730.579514 830.073177 730.412817 751.391963 729.912724 667.709823 729.57933 665.376059 729.57933 663.542386 732.746582Z" fill="#000000" /><path d="M641.038225 895.610028C617.200484 904.278297 611.199375 933.95045 629.536099 952.453871 643.205293 965.956368 663.542386 965.956368 677.87837 952.287174 696.381791 934.450543 689.713892 904.1116 665.376059 895.44333 656.541092 892.442776 649.873192 892.442776 641.038225 895.610028ZM661.041874 910.279407C680.212135 918.280886 673.7109 947.452947 652.873747 946.786157 645.205663 946.619459 639.537948 942.452022 636.037351 934.783938 630.53625 922.448324 638.70446 910.446104 654.040629 908.11234 654.707419 908.11234 657.874672 908.945827 661.041874 910.279407Z" fill="#000000" /><path d="M806.235436 895.44333C796.066889 898.943978 791.566057 903.111415 786.398435 913.113264 782.397695 920.614651 781.730905 923.448508 782.564393 930.116408 783.897973 941.785232 789.565687 951.120292 799.234142 957.121401 817.404168 968.290133 842.742186 960.288653 849.743481 940.951745 852.410641 933.450358 852.410641 920.614651 849.576783 914.113449 846.409531 906.612062 837.407867 898.610583 828.739597 895.44333 819.90463 892.442776 814.737008 892.442776 806.235436 895.44333ZM824.905555 910.446104C845.409346 918.780979 837.241169 948.786527 815.237101 946.452762 805.235251 945.285879 798.567352 937.95119 798.567352 928.116038 798.567352 919.947861 802.067999 914.280147 809.402689 911.112894 817.570865 907.278852 817.070773 907.44555 824.905555 910.446104Z" fill="#000000" /></svg>