<?xml version="1.0" standalone="no"?><!DOCTYPE svg PUBLIC "-//W3C//DTD SVG 1.1//EN" "http://www.w3.org/Graphics/SVG/1.1/DTD/svg11.dtd"><svg class="icon" width="200px" height="200.00px" viewBox="0 0 1024 1024" version="1.1" xmlns="http://www.w3.org/2000/svg"><path d="M270.25846 222.816435C236.418817 226.769696 202.895432 243.847615 177.278474 270.413316 162.730622 285.435588 154.666034 296.820888 145.020155 315.954518 97.581402 410.199506 50.775167 643.440037 63.58363 721.555849 68.485634 751.758521 76.075835 768.994601 91.414365 784.175002 105.487861 798.248498 114.817482 802.043598 135.532404 802.201727 152.452226 802.201727 160.200555 800.146048 180.441089 790.025781 215.862024 772.315314 245.748407 739.424445 269.625928 691.511306 277.532402 675.540259 291.28964 640.751873 299.828616 614.502398 303.781845 602.800839 309.000108 590.624893 312.47895 585.248501 320.543537 572.756296 333.984517 560.896545 345.211689 556.152733L354.54131 552.35768 507.768479 551.883245C675.385403 551.408858 669.376495 551.250665 685.6638 560.58035 704.6393 571.491263 714.28518 585.564759 724.563576 616.874336 746.85979 684.237364 770.262908 727.881016 800.307451 758.083688 835.728385 793.346494 877.632617 809.633799 908.625935 799.987919 935.666023 791.607073 952.269587 767.097051 960.334174 723.13714 965.07805 697.362085 962.073595 640.593712 952.902103 580.820884 945.628161 532.749615 926.968919 451.629381 913.211681 406.878793 894.078051 344.734028 871.781837 298.244051 848.853107 272.943383 824.975602 246.535811 787.340858 227.24402 751.445536 222.816435 734.209456 220.760787 288.285186 220.760787 270.25846 222.816435ZM765.677162 250.805299C806.948876 263.930004 835.728385 288.7563 855.652661 328.130464 866.721704 350.268549 882.060233 391.382134 892.1805 426.64494L897.398763 444.829795 895.184955 459.852066C885.380946 526.266319 843.002327 574.970041 785.601437 585.722857 771.68607 588.252955 762.988966 588.094889 747.650436 584.457855 739.902106 582.718434 739.11146 582.085918 730.730614 569.435584 717.922151 550.143824 701.951104 538.2842 677.91547 530.061419 669.692753 527.215094 661.94436 527.057012 510.298546 527.057012L351.378726 527.057012 341.416588 530.693936C320.227279 538.2842 301.409907 553.938925 290.024607 573.230747 283.857601 583.983468 278.639338 586.197213 258.87316 587.462309 215.703895 589.992376 172.060243 563.584867 146.127059 518.992377 138.062471 505.235139 129.839754 483.097055 126.67717 467.126008 123.514587 450.522445 123.830845 448.624895 137.429954 406.088147 160.358684 334.930019 178.38541 301.090376 205.425499 278.161677 222.661579 263.613762 250.966701 250.330911 270.732848 247.484602 273.421059 247.168328 383.320819 246.852101 515.042421 247.010198L754.608119 247.168328 765.677162 250.805299ZM913.527939 509.662756C927.443306 570.542488 937.405444 644.546941 937.563573 687.558076 937.563573 730.727341 927.285177 760.139367 907.993418 772.157184 901.193863 776.426672 898.980055 776.90106 888.3854 776.74293 866.721704 776.426672 843.951103 764.725113 821.022372 742.112641 792.242863 713.807519 775.639299 683.604847 750.180502 613.711752L744.804111 599.163868 763.147095 600.112707C784.178275 601.061355 801.098096 597.898835 819.282951 589.676181 856.443307 572.914378 886.48785 538.126007 900.086959 496.696164 902.300768 489.896609 904.672705 483.255184 905.147093 481.990151 906.253997 478.985696 907.360901 482.622667 913.527939 509.662756ZM128.416591 514.406631C138.2206 536.070328 159.884297 562.477837 179.176056 576.235138 192.300778 585.564759 209.536857 593.629347 225.507904 597.582577 236.260688 600.270709 242.269596 600.74516 258.240643 600.270709 268.993427 600.112707 277.84866 600.112707 277.84866 600.428902 277.84866 600.74516 274.527948 610.232879 270.574719 621.77634 250.176055 679.335391 231.042425 713.64939 204.318595 740.689479 178.069168 767.413309 145.652671 781.803064 124.937749 776.268543 121.300778 775.319768 115.133741 771.524668 110.706124 767.571438 84.931069 744.32645 80.187193 690.246272 95.367594 591.09928 99.320823 564.849869 111.813028 500.807522 115.133741 489.105963L116.873162 482.938894 120.510133 493.849839C122.407683 500.016876 126.044654 509.188368 128.416591 514.406631Z" fill="#000000" /><path d="M700.8442 288.914429C688.668254 291.918884 677.757341 301.722892 674.911016 312.317547 673.804112 315.954518 673.171595 339.515765 673.171595 372.248504 673.171595 432.495719 673.962193 437.872174 682.975604 446.727408 690.723933 454.317545 699.421038 456.689483 718.870926 456.689483 748.124823 456.689483 758.719478 450.83864 764.253999 432.021332 768.207228 418.264094 763.779611 399.446722 755.240636 395.019105 752.078053 393.279684 752.236182 393.121555 757.612574 387.112646 771.527941 371.774116 768.207228 343.627124 751.129278 330.660531 745.911015 326.707302 743.855336 326.232914 730.572485 325.758527 720.452218 325.284139 715.075826 325.758527 713.494534 327.02356 710.331951 329.711756 710.015692 396.916655 713.178276 399.446722 714.127051 400.237368 721.559122 401.344272 729.465581 401.66053 746.069144 402.293047 749.547986 404.190597 752.236182 414.310864 755.715024 426.803069 749.389857 439.295274 738.320814 442.457857 730.730614 444.513536 708.908788 444.513536 701.318588 442.457857 698.156004 441.509082 693.728387 438.662757 691.514579 435.974498L687.40322 431.072557 687.40322 373.671667C687.40322 333.032469 687.877608 314.847614 689.300771 312.001289 690.249546 309.78748 693.728387 306.308638 696.732842 304.411088 701.634846 301.406634 704.6393 300.932247 717.447764 300.932247 740.692752 300.932247 750.496761 307.257414 753.184957 323.544718 754.44999 331.134919 756.821928 333.823115 762.040191 333.032469 765.360903 332.558081 765.677162 331.767435 765.519032 322.912202 765.360903 305.99238 755.398765 294.290821 737.688298 289.546946 728.991193 287.333138 708.908788 287.016879 700.8442 288.914429ZM741.16714 340.622669C756.663799 346.947836 758.40322 373.987925 744.013465 384.58258 741.16714 386.638259 737.055781 387.745163 732.153777 387.745163L724.563576 387.903292 724.089189 364.974562C723.93106 352.482357 724.089189 341.255186 724.405447 340.148282 725.512351 337.301957 733.41881 337.618215 741.16714 340.622669Z" fill="#000000" /><path d="M521.841976 315.954518C493.062466 322.754073 468.710542 328.762981 467.761798 329.237369 466.813023 329.869885 466.022377 332.083694 466.022377 333.981244 466.022377 342.36209 467.287411 342.36209 525.478947 328.92111 577.503492 316.903293 582.879837 315.163872 583.037966 310.103739 583.037966 307.731801 578.610349 303.304184 576.238411 303.462313 575.131507 303.620443 550.779614 309.154964 521.841976 315.954518Z" fill="#000000" /><path d="M344.579172 322.121556C328.924384 330.97679 317.539083 342.994607 308.683849 360.863203 302.674941 372.564762 301.726166 378.7318 305.521266 380.154963 311.055787 382.368771 315.009016 379.206188 319.436633 369.24405 324.338638 358.016878 334.458905 345.050286 342.681622 338.883248 349.323047 333.981244 352.169372 333.823115 352.169372 338.56699 352.169372 343.785253 358.652668 349.319774 366.242869 350.268549L372.726165 351.217324 372.726165 364.183916C372.726165 408.776343 348.058014 459.219518 319.120375 474.083692 310.107012 478.51134 308.52572 481.199505 311.688304 485.94338 313.111466 488.15722 315.483404 489.896609 316.748437 489.896609 321.9667 489.896609 338.095876 478.35318 348.058014 467.600396 360.075831 454.633803 373.67494 428.700651 379.683848 407.669439 384.902111 389.326455 387.274049 362.760754 385.218369 348.370999 384.427724 342.203961 383.16269 333.664986 382.688303 329.395498 381.739528 321.33091 379.051332 317.693939 373.833069 317.53581 369.563581 317.53581 368.772935 321.805298 371.935519 328.604852 374.307456 333.664986 374.307456 335.246277 372.726165 337.301957 369.247323 341.413315 364.819706 340.306411 364.819706 335.246277 364.819706 332.87434 365.610352 330.028015 366.559127 329.07924 367.507902 328.130464 367.98229 325.442269 367.666031 322.912202 367.191644 318.642714 366.559127 318.326456 360.075831 317.852068 354.699439 317.53581 351.062468 318.642714 344.579172 322.121556Z" fill="#000000" /><path d="M368.298548 332.083694C366.084739 334.297502 365.768481 336.511311 367.82416 336.511311 368.614806 336.511311 369.563581 335.088148 370.037969 333.348727 370.986744 329.711756 370.828615 329.553627 368.298548 332.083694Z" fill="#000000" /><path d="M564.853111 374.620442C541.766251 377.624896 528.009013 383.633804 517.572488 395.019105 509.191642 404.348726 505.080283 414.943381 501.759571 436.290883 500.810795 441.509082 500.336408 441.82534 494.960016 441.98347 487.686074 442.141599 481.835295 448.150507 481.835295 455.26632 481.835295 461.1171 489.425495 469.339817 494.801855 469.339817 498.1226 469.339817 498.43881 468.865397 497.964534 462.224004 497.331954 455.740708 497.648212 455.108191 500.968925 455.108191 504.289637 455.108191 504.289637 455.26632 501.9177 457.954516 500.336408 459.693874 499.703828 462.065811 500.336408 464.279683 501.601489 469.656043 511.089192 468.549171 515.516809 462.540262 518.679392 458.428872 518.679392 457.954516 516.149325 450.680574 513.935517 444.513536 513.777388 441.509082 515.042421 432.970107 517.25623 419.370998 524.530172 404.506855 531.804114 398.972334 539.078056 393.437813 553.309681 389.010196 567.699436 387.745163 580.507899 386.638259 583.037966 385.215096 583.037966 379.838704 583.037966 376.83425 578.45222 372.248504 576.396477 373.03915 576.080282 373.197279 571.020149 373.987925 564.853111 374.620442Z" fill="#000000" /></svg>