<?xml version="1.0" standalone="no"?><!DOCTYPE svg PUBLIC "-//W3C//DTD SVG 1.1//EN" "http://www.w3.org/Graphics/SVG/1.1/DTD/svg11.dtd"><svg class="icon" width="200px" height="200.00px" viewBox="0 0 1024 1024" version="1.1" xmlns="http://www.w3.org/2000/svg"><path d="M241.852089 65.852416C226.170172 68.493581 216.430875 72.620402 212.964346 78.232877 211.313618 81.039115 209.827963 85.331009 209.827963 87.972174 209.827963 98.371761 230.627171 148.388791 275.692017 246.442061L290.713643 279.126495 290.713643 321.385136 273.876216 330.95936C180.279929 383.287443 113.755584 457.074926 82.061603 543.243002 59.116481 605.805599 55.154725 674.145778 71.001724 736.378197 97.413375 840.704217 167.569338 918.618587 258.524477 944.865165 317.290366 961.537519 396.690391 963.683466 462.884591 949.982422 498.870465 942.554145 539.64345 923.240626 566.550287 900.955795 570.842213 897.489266 574.80396 894.683028 575.299179 894.683028 575.794364 894.683028 576.289616 906.568271 576.289616 921.094679 576.289616 947.011111 576.454689 947.671403 580.416387 951.63315 587.184422 958.566208 592.961937 957.245626 613.430999 943.709655 664.768645 910.0348 679.625199 900.460577 680.780709 899.965359 681.440967 899.635213 700.919592 911.685529 724.029787 926.707155 747.139981 941.728781 767.443937 954.109242 768.929593 954.109242 770.580321 954.109242 790.719205 941.563708 813.829399 926.211936L855.757894 898.479703 891.413623 921.75497C911.057288 934.63065 930.866026 947.50633 935.488065 950.47764 947.53838 958.07099 955.792021 957.575772 960.083914 948.991985 962.229861 945.030238 962.560007 892.372009 962.560007 545.884134L962.560007 147.398388 959.093477 142.941422 955.792021 138.649528 583.387681 138.649528 580.251363 142.116057C577.280053 145.417514 577.11498 150.699844 576.289616 279.126495L575.464252 412.670404 559.287116 397.81385C530.2343 371.4022 503.987722 352.418826 465.690829 330.464141L448.358133 320.559772 447.86303 300.420889 447.367746 280.282005 455.126168 263.609651C459.252956 254.365606 473.119056 224.817539 485.499567 197.745597 518.844276 126.599213 529.739015 97.71147 527.923346 86.156373 526.107479 75.096494 517.853839 69.814164 499.035505 67.668217 469.487503 64.366761 421.946532 74.436203 387.281241 91.438703L372.754833 98.536834 365.326556 92.924358C351.130294 82.029552 328.515318 72.950547 304.084541 68.328508 288.897842 65.357198 253.572259 64.036615 241.852089 65.852416ZM308.871653 97.216251C327.855027 102.168436 344.197236 110.257004 356.577697 121.15181 362.190173 126.269067 368.132794 130.395887 369.618449 130.395887 371.269177 130.395887 381.173546 126.103994 391.738207 120.656591 423.432188 104.644528 456.446751 95.730596 484.674202 95.730596L498.540319 95.730596 494.413499 106.790475C487.150295 126.103994 476.420611 150.699844 447.697892 212.932296L419.800586 273.183874 318.610949 273.183874 301.278303 235.217126C266.613012 159.448687 241.191798 100.187562 241.191798 95.070305 241.191798 93.089431 248.785148 92.594212 270.904905 93.254504 288.402624 93.584649 298.637138 94.740159 308.871653 97.216251ZM916.009472 166.546834L934.497628 166.711907 934.497628 916.47264 928.389934 912.675965C924.923404 910.530019 908.085977 899.635213 890.753331 888.245189 873.585758 877.020237 858.068914 867.446014 856.583258 866.950795 854.767457 866.455577 838.425249 876.194873 813.33418 892.867227 791.04935 907.558708 771.735831 919.939169 770.415248 920.434388 768.76452 921.094679 752.917529 911.685529 725.845588 893.857664 695.802335 874.379072 682.926655 866.62065 680.615636 867.280941 678.964908 867.941232 661.302166 879.001111 641.328305 892.206936L605.177309 915.977422 604.682107 890.556208 604.186922 864.969921 612.275523 854.735407C654.864276 800.42645 678.634762 730.600649 678.799835 660.279629 678.964908 591.279191 658.495878 525.415072 618.71333 466.649182L604.351995 445.519894 604.351995 165.886543 750.936656 166.051616C831.49219 166.216689 905.774958 166.381745 916.009472 166.546834ZM419.140294 300.751034L418.645076 312.80135 321.252114 312.80135 320.756896 300.751034 320.261677 288.865791 419.635513 288.865791 419.140294 300.751034ZM419.47044 329.968923C419.47044 335.251253 424.587697 339.378073 447.202673 352.418826 531.059664 400.12487 584.708329 453.278317 618.548224 522.443777 638.522068 563.546892 648.426437 602.33907 650.077165 647.073804 651.892966 700.22725 641.988597 744.796911 617.55782 793.493392 582.892528 861.998611 533.700829 902.771596 464.205239 920.269315 436.307867 927.367446 410.556508 930.008611 369.948595 930.008611 331.816774 930.008611 313.823837 928.357883 285.761458 922.415262 209.993036 906.238126 154.528569 861.338319 119.698205 788.045989 97.578448 741.8256 87.839151 695.605146 89.820025 647.899168 94.77221 531.852978 160.63628 430.993454 277.507818 361.167685 284.275803 357.205938 294.675391 351.098243 300.618012 347.96186 312.173109 341.52402 317.785585 336.406763 319.601386 330.464141L320.591823 326.832539 370.113668 326.832539C417.324493 326.832539 419.47044 326.997612 419.47044 329.968923Z" fill="#000000" /><path d="M709.173233 274.009238C707.687578 278.961422 711.154107 282.262879 717.591947 282.262879 723.03935 282.262879 723.864714 283.253316 743.013161 311.975986L762.821898 341.854166 756.879277 349.942734C744.828961 366.780161 736.410248 370.741908 716.271364 369.256253L703.395685 368.265816 703.395685 373.878292C703.395685 379.160622 703.890903 379.655841 710.493816 381.471642 719.572821 383.947734 735.584884 382.627151 744.828961 378.500331 756.384059 373.383074 762.821898 365.459578 789.728768 322.375573 813.33418 284.738971 815.149981 282.262879 819.77202 282.262879 826.540006 282.262879 829.181171 280.116932 828.52088 275.494893 828.025661 271.533146 827.860588 271.533146 805.245612 271.037927 785.271802 270.707782 782.465564 270.872854 781.475127 273.348947 779.659326 278.136058 783.290928 281.437515 791.544569 282.262879L799.137918 283.088243 785.601947 304.877855C778.008598 316.92817 771.405685 326.832539 770.745394 326.832539 769.589884 326.832539 741.362432 284.738971 741.362432 283.253316 741.362432 282.758097 744.498816 282.262879 748.130418 281.932733 755.558695 281.437515 759.190297 277.970986 757.374496 273.348947 756.549131 271.037927 753.082602 270.707782 733.273864 270.707782 711.484253 270.707782 710.16367 270.872854 709.173233 274.009238Z" fill="#000000" /><path d="M749.285928 509.898227C731.127918 515.840914 717.922092 527.726157 711.484253 544.563584 706.201922 557.934483 706.366995 581.374822 711.649325 594.910826 720.893403 618.681279 744.663889 632.21725 776.688015 632.21725 789.728768 632.21725 807.061413 628.420641 818.451438 623.138245 827.530443 619.011425 827.695515 619.011425 826.705079 613.068803 826.044787 609.767347 825.384496 606.796036 824.889278 606.300752 824.559132 605.970672 820.597384 607.456328 816.140418 609.602307 797.157044 619.176564 779.164107 621.982735 761.666389 618.351199 748.130418 615.54483 742.352869 612.90373 735.749957 606.300752 730.302554 601.018488 724.029787 588.142808 722.379058 579.063737L721.223549 572.791036 777.018161 572.46089 832.977846 571.965672 833.473064 564.537395C834.133355 556.118682 831.327117 541.427201 827.695515 533.998924 824.394059 527.396061 814.324617 516.996424 808.216923 513.86004 794.020661 506.431764 766.288428 504.45089 749.285928 509.898227ZM798.477627 524.094506C803.429811 526.570647 809.372433 531.027613 811.683452 533.998924 815.6452 539.281254 820.597384 552.156983 820.597384 557.439264 820.597384 559.255065 811.518379 559.585211 771.900903 559.585211 731.623136 559.585211 723.204423 559.255065 723.204423 557.274191 723.204423 553.147371 727.991534 541.592274 731.788209 536.309878 744.16867 519.637589 776.853088 513.529961 798.477627 524.094506Z" fill="#000000" /><path d="M750.441437 693.789411C725.020223 700.557396 713.465126 715.579022 718.582384 735.882979 724.194859 758.002736 757.374496 770.218125 787.417748 761.13912 805.08054 755.85679 813.994472 746.777785 816.140418 732.086304 818.451438 717.064678 809.042287 702.703343 793.030224 696.595648 781.475127 692.303755 761.501316 690.983173 750.441437 693.789411ZM790.719205 710.626838C803.759957 718.220187 806.896341 730.600649 798.312554 739.679654 790.719205 747.438076 783.621073 749.914168 767.774083 750.079241 752.092165 750.244314 741.032287 746.282566 734.75952 738.359071 727.001097 728.454702 732.943719 714.25844 746.809835 709.141183 757.04435 705.344508 783.290928 706.334945 790.719205 710.626838Z" fill="#000000" /><path d="M359.879153 476.88373L355.092041 481.670841 355.092041 530.862541 342.381435 534.659215C335.448376 536.640056 326.699517 540.106618 322.737769 542.417638 312.998473 548.195186 301.11323 561.400979 295.995973 572.46089 292.034226 580.879604 291.539007 583.850915 291.539007 599.36776 291.539007 616.040114 291.869153 617.360697 297.316556 628.255502 305.240051 643.607208 316.465002 652.191061 338.089541 659.454314L354.266677 664.901668 354.761896 702.208124C355.092041 728.949921 354.596823 739.514581 353.27624 739.514581 349.314493 739.514581 330.99141 734.067178 319.436313 729.445139 300.122794 721.851789 290.878716 723.66759 287.577259 735.717906 285.596386 742.816037 288.402624 751.234751 294.345245 755.031426 299.957721 758.663028 331.156483 768.732469 344.032163 770.878416L355.092041 772.85929 355.092041 796.794848C355.092041 810.000674 355.917406 822.050989 356.74277 823.86679 357.733207 825.517518 360.704517 828.158683 363.510755 829.479266 367.637576 831.625212 369.618449 831.790285 374.240488 830.30463 383.319493 827.333319 384.805148 822.381135 384.805148 795.969484L384.805148 772.85929 395.865027 770.878416C411.712018 767.907105 430.860464 757.837663 439.939502 747.603149 456.281678 729.445139 460.07832 700.392323 449.018474 679.09793 439.444251 661.104993 421.451314 649.549896 386.951095 639.480454 385.300367 638.985235 384.805148 630.071369 384.805148 601.843852 384.805148 581.374822 385.300367 564.372256 386.125731 564.042177 387.611386 563.051707 405.109105 567.838852 420.460877 573.286254 427.393968 575.92742 433.831775 577.248068 436.14286 576.587711 446.047163 574.276691 451.494566 562.721528 447.532819 552.982298 446.212203 549.680842 442.91078 546.874604 436.968225 543.903293 428.054226 539.611433 397.020537 531.522832 389.427187 531.522832L384.805148 531.522832 384.805148 481.670841 380.018037 476.88373C376.71658 473.582273 373.580197 472.096618 369.948595 472.096618 366.316993 472.096618 363.180609 473.582273 359.879153 476.88373ZM355.092041 597.551959C355.092041 621.487517 354.596823 628.915794 353.111168 628.915794 349.479566 628.750721 337.924469 622.808099 333.797648 619.011425 322.737769 608.281692 322.902842 588.472954 334.127794 576.257565 337.759396 572.295785 349.14942 566.353262 353.111168 566.188123 354.596823 566.188123 355.092041 573.6164 355.092041 597.551959ZM402.633013 681.078804C407.420124 683.389823 413.362746 688.011895 415.838838 691.148246 419.635513 696.265503 420.295804 698.741595 420.295804 708.150746 420.295804 717.724969 419.635513 720.035988 415.673765 725.153246 410.556508 731.921231 401.972721 737.038489 391.573134 739.349508L384.805148 740.835163 384.805148 674.806037 389.427187 675.796474C391.90328 676.456765 397.845901 678.767751 402.633013 681.078804Z" fill="#000000" /></svg>