<?xml version="1.0" standalone="no"?><!DOCTYPE svg PUBLIC "-//W3C//DTD SVG 1.1//EN" "http://www.w3.org/Graphics/SVG/1.1/DTD/svg11.dtd"><svg class="icon" width="200px" height="200.00px" viewBox="0 0 1024 1024" version="1.1" xmlns="http://www.w3.org/2000/svg"><path d="M491.764049 62.260742C397.407503 71.080666 321.689288 133.818616 304.548681 217.524671 302.21889 228.175162 301.220408 244.150856 300.221926 276.767951L299.05703 321.533225 293.066138 322.698121C284.246214 324.362257 271.931603 331.518045 265.108643 339.00666 246.470313 359.808367 244.306969 394.755236 260.449061 418.219562 267.105607 428.037968 281.084355 437.68996 292.899725 440.518992 301.220408 442.68237 302.052476 443.348025 302.551717 447.67478 304.382267 467.145178 314.200673 498.098119 325.849629 520.397549 373.943177 614.254854 478.118129 659.51937 572.807468 628.067188 605.091752 617.2503 632.217178 600.276107 657.345641 574.814816 689.463511 542.364153 712.428563 497.598878 719.251523 453.665672 720.749246 444.013679 721.747728 441.683888 724.077519 441.683888 725.741656 441.683888 731.233306 440.186165 736.39213 438.189201 748.041086 433.862446 760.189283 422.047076 766.679416 408.900397 771.006171 400.080473 771.338999 397.750682 771.338999 380.942902 771.338999 364.634363 770.839758 361.638917 767.012243 353.484648 759.523629 337.841764 743.381504 324.861498 728.237861 322.365294L722.246969 321.366812 722.246969 282.093188C722.246969 225.84537 718.253041 203.878767 702.443743 172.426585 684.637481 137.146889 649.857026 103.364916 611.082644 84.060932 577.799978 67.419566 529.706397 58.599642 491.764049 62.260742ZM533.367464 90.551064C577.467084 95.543474 618.071951 114.847459 647.360822 144.635471 675.48473 173.09224 690.46196 204.710836 693.290959 242.153909L694.455887 256.29907 688.964237 260.958653C684.13824 264.952581 682.474104 265.285408 676.649626 264.453306 666.498392 262.789203 644.365376 252.804417 635.046211 245.648563 630.386562 242.320323 624.728564 236.163017 622.398772 232.002676 615.908606 220.852961 612.74678 221.185788 599.10086 234.332467 585.122112 247.811974 576.801429 251.805868 563.155443 251.972315 551.340073 251.972315 523.549058 245.149355 493.428186 234.998122 447.997256 219.521651 428.027617 225.346129 372.944695 269.778577 368.285113 273.606091 365.788908 274.438159 357.967466 274.271746 336.666517 273.938918 326.681698 260.625842 329.677144 236.828672 335.335208 191.231329 359.298775 152.956187 400.402949 123.334556 413.383215 114.015391 441.839901 101.035125 459.479865 96.375543 485.939571 89.386169 507.739727 87.722032 533.367464 90.551064ZM485.939571 248.144801C514.229893 258.296068 548.17828 265.951029 564.98606 266.11751 582.29308 266.11751 589.282421 263.288444 602.429133 250.973833 606.755888 246.979905 610.749816 243.651632 611.581885 243.651632 612.247539 243.651632 616.075053 247.312749 620.068981 251.805868 632.550006 265.784649 663.835774 279.596983 679.312211 278.265673 684.13824 277.766433 689.463511 276.767951 691.127614 276.102296 693.623819 275.103814 693.956646 276.102296 694.123027 287.085597 694.622301 344.664724 694.455887 343.499828 698.782643 346.994515 701.611675 349.324307 705.272775 350.156375 713.427045 350.156375 719.58435 350.156375 726.074483 351.154857 728.903515 352.65258 740.552471 358.643472 747.541845 376.449733 743.880745 390.428481 739.720403 405.904951 727.73862 415.057702 711.430081 415.057702 699.11547 415.057702 693.956646 419.717218 693.956646 430.534173 693.956646 458.990842 679.977899 499.762256 660.507501 528.551819 643.36696 553.513868 614.57733 578.475984 587.119076 591.955424 561.324959 604.602862 545.848489 608.430376 516.559684 609.262444 493.428186 610.094512 490.099912 609.761685 473.292133 605.767757 451.491943 600.276107 423.700862 587.295841 406.893082 574.648403 364.291185 542.69698 336.000863 493.771364 329.677144 441.683888 328.512248 433.030378 327.347352 424.376867 327.014525 422.379903 326.016043 417.886801 319.52591 415.057702 309.873918 415.057702 277.090427 414.891289 264.110161 372.122978 291.069174 353.983889 295.562343 350.988443 299.05703 350.156375 307.876954 350.156375 316.696878 350.156375 320.025151 349.49072 323.519838 346.661688L327.846593 343.333415 327.846593 311.548406C327.846593 282.093188 328.013007 279.92981 330.842039 281.094706 342.490996 286.253529 351.643747 288.416907 361.462153 288.58332 372.279041 288.58332 372.778282 288.416907 383.095929 280.262637 398.572399 268.11444 424.699344 250.80742 433.352887 246.813492 450.826288 239.158463 461.64321 239.324844 485.939571 248.144801Z" fill="#000000" /><path d="M322.022115 630.563343C315.698396 632.893184 299.889098 639.882558 287.075247 646.20631 200.040902 688.974588 132.144095 762.695839 103.520979 845.902669 97.696501 862.710449 97.363674 864.540999 97.363674 886.008362 97.363674 908.307792 97.363674 908.640619 103.021738 919.623921 109.511871 932.7706 123.490618 946.749348 136.30447 953.405894 155.275627 962.891473 137.635746 962.558645 509.237483 962.558645 727.239379 962.558645 855.377897 961.892991 862.700098 960.894509 883.501806 957.899063 906.799718 941.923351 917.78302 923.451435 932.926663 897.490904 928.599908 860.547072 905.135582 811.787869 871.520022 742.393373 810.779036 682.817282 736.39213 646.37269 708.933876 632.893184 689.297064 626.070224 682.30769 627.401533 675.651144 628.732842 671.490802 634.05808 668.495356 644.708554 663.003706 663.513331 640.038587 692.136447 617.073535 708.444986 602.096306 719.09546 577.633498 730.578003 557.996686 735.736826 543.18587 739.730754 538.859115 740.229995 511.733688 740.229995 484.774675 740.229995 480.115093 739.730754 465.803518 735.90324 444.66905 730.078762 428.526858 723.089388 411.885492 712.2725 384.760065 694.632652 361.462153 666.508743 354.306365 642.71159 351.477333 633.558772 349.813197 630.729806 345.985682 628.899206 339.661963 625.570983 335.668035 625.903777 322.022115 630.563343ZM347.649819 664.345366C366.78739 702.28768 410.88701 736.069653 457.649249 748.550678 541.188906 771.016522 627.723976 739.730754 671.490802 671.33474 675.318316 665.343848 678.979417 659.186542 679.478658 657.522472 680.976348 653.694892 685.802377 654.52696 702.942984 661.682747 790.143742 697.628098 867.858922 777.173828 892.820971 856.053903 904.303513 892.831322 897.979794 915.297166 872.35209 927.944604L861.202375 933.436255 512.565757 933.436255C182.23464 933.436255 163.429897 933.269841 155.442041 930.440809 144.125945 926.446881 133.641852 917.127716 128.815855 906.976483 120.661586 889.336635 125.154755 862.377622 142.128948 826.931512 177.075817 753.875915 242.975627 693.301343 322.854184 660.684265 330.675626 657.522472 338.330654 654.859787 339.828377 654.693374 341.825341 654.693374 344.487959 658.021647 347.649819 664.345366Z" fill="#000000" /></svg>