<?xml version="1.0" standalone="no"?><!DOCTYPE svg PUBLIC "-//W3C//DTD SVG 1.1//EN" "http://www.w3.org/Graphics/SVG/1.1/DTD/svg11.dtd"><svg class="icon" width="200px" height="200.00px" viewBox="0 0 1024 1024" version="1.1" xmlns="http://www.w3.org/2000/svg"><path d="M665.089524 67.608341C649.119808 71.101724 585.906185 85.075254 524.522412 98.217027 463.305091 111.525151 345.694544 137.143273 263.350526 154.942906 181.006508 172.908874 105.482903 189.211326 95.50181 191.207528 75.373273 195.03363 68.552859 198.693364 64.061367 207.343645 61.399742 212.833246 61.233391 233.294487 61.566094 581.96734L62.065148 950.935081 67.55475 956.258331 72.877999 961.747932 509.550823 962.246987C988.144237 962.57969 954.873927 963.411448 960.197176 952.764948 962.526098 948.273457 962.858801 911.010709 962.359747 579.971121L962.027044 212.001488 956.537442 207.177293 951.214193 202.353098 735.45623 202.353098 734.458121 192.704675C733.792715 187.54781 731.463793 160.432507 728.96852 132.485447 726.473246 104.538386 723.64527 79.419302 722.480809 76.591325 719.486481 69.105505 709.838091 62.285092 701.18781 61.619686 697.029022 61.286983 682.556387 63.615904 665.089524 67.608341ZM697.195373 97.884324C698.359834 107.699065 704.514841 171.578028 706.178357 190.209435L707.176466 202.353098 444.507366 202.186747C188.658679 202.020395 182.170969 202.020395 193.482874 199.026067 207.622756 195.532685 224.756966 191.706599 313.255992 172.409819 350.851442 164.424945 424.54518 148.288844 477.11227 136.810587 529.679361 125.498682 596.05363 111.026097 624.333393 104.871089 652.779509 98.716082 680.061163 92.893777 685.05171 91.729316 690.042256 90.564856 694.7001 89.566746 695.199121 89.400395 695.698209 89.234043 696.696318 93.22648 697.195373 97.884324ZM934.246334 363.215049L933.74728 495.963537 849.739746 496.795345C767.063025 497.627053 765.565861 497.627053 754.919362 501.453222 739.947722 506.776438 730.798387 512.432324 719.486481 523.07889 707.675521 534.390762 699.524295 546.534459 694.034694 561.007011 673.739804 615.23765 703.516732 674.791505 759.743557 692.092067 770.057353 695.252746 776.21236 695.419098 852.734074 696.084504L934.579038 696.583525 934.246334 815.025864 933.74728 933.468168 90.344912 933.468168 89.845858 597.438034C89.513155 412.62146 89.845858 254.421134 90.344912 245.937172L91.509373 230.632862 934.579038 230.632862 934.246334 363.215049ZM934.246334 596.107221L934.579038 681.445568 855.894754 681.445568C769.558298 681.445568 767.728431 681.279216 747.932596 671.298056 725.308785 659.819866 707.841872 635.865242 703.184029 609.9144 695.698209 567.494755 725.641488 521.914429 766.56397 513.596918 771.554517 512.598742 777.21047 511.434282 779.040337 511.101645 780.870204 510.768809 816.469436 510.602524 858.057324 510.768809L933.74728 510.935227 934.246334 596.107221Z" fill="#000000" /><path d="M758.745447 541.876616C746.934487 546.368107 732.960957 559.50988 727.138652 571.32084 722.979864 579.638351 722.480809 582.632746 722.480809 596.606276 722.480809 611.245213 722.979864 613.407783 727.97041 623.555228 733.959066 635.865242 743.773808 645.679984 756.250174 651.66864 767.728431 657.324543 789.02143 657.989999 801.830499 653.165804 814.972272 648.341609 826.783232 637.196055 833.437294 623.555228 838.427841 613.574134 838.926895 611.078861 838.926895 597.438034 838.926895 583.79724 838.427841 581.301967 833.437294 571.32084 826.949584 557.846365 814.639569 546.534459 801.830499 541.710264 790.019539 537.218772 770.556407 537.385057 758.745447 541.876616ZM800.83239 556.349234C810.813483 561.506099 820.960928 573.816114 824.121607 584.628964 830.942021 608.084533 816.635787 634.201727 793.512922 640.855756 759.577205 650.836882 727.305004 618.731033 737.119746 584.795316 741.444886 569.990028 751.259627 559.50988 765.898564 554.020279 774.881548 550.693248 792.182109 551.857709 800.83239 556.349234Z" fill="#000000" /></svg>